<?xml version="1.0" encoding="utf-8"?>
<!-- Generator: Adobe Illustrator 24.0.0, SVG Export Plug-In . SVG Version: 6.00 Build 0)  -->
<svg version="1.1" xmlns="http://www.w3.org/2000/svg" xmlns:xlink="http://www.w3.org/1999/xlink" x="0px" y="0px"
	 viewBox="0 0 4000 2000" style="enable-background:new 0 0 4000 2000;" xml:space="preserve">
<style type="text/css">
	.st0{clip-path:url(#SVGID_2_);fill:#A9D0FF;}
	.st1{clip-path:url(#SVGID_2_);}
	.st2{fill:#99C7FF;}
	.st3{fill:#80B9FF;}
	.st4{fill:#94C4FF;}
	.st5{fill:#96C5FF;}
	.st6{fill:#8CC0FF;}
	.st7{fill:#82B3FF;}
	.st8{fill:#E6F0FF;}
	.st9{fill:#4A3F78;}
	.st10{fill:#60529C;}
	.st11{clip-path:url(#SVGID_4_);}
	.st12{fill:#42396E;}
	.st13{fill:#352D57;}
	.st14{fill:#446799;}
	.st15{fill:#6792CE;}
	.st16{fill:#453B73;}
	.st17{fill:#759ACE;}
	.st18{fill:#E6F1FF;}
</style>
<g id="BG_1_">
	<g>
		<defs>
			<rect id="SVGID_1_" width="4000" height="2000"/>
		</defs>
		<clipPath id="SVGID_2_">
			<use xlink:href="#SVGID_1_"  style="overflow:visible;"/>
		</clipPath>
		<rect class="st0" width="4000" height="2000"/>
		<g class="st1">
			<g>
				<g>
					<g>
						<path class="st2" d="M4037.25,893.52h-93.14l93.14-87.49v-9.59l-98.38,92.41V776.13h98.38v-6.82H13.18v6.82h93.8l-93.8,88.1
							v9.58l98.54-92.55v112.26H13.18v6.82h101.28c0.25,0.05,0.5,0.08,0.75,0.08c0.24,0,0.49-0.03,0.73-0.08H246.2
							c0.25,0.05,0.5,0.08,0.75,0.08c0.24,0,0.49-0.03,0.73-0.08h129.34c0.25,0.05,0.5,0.08,0.75,0.08c0.24,0,0.49-0.03,0.73-0.08
							h130.27c0.25,0.05,0.5,0.08,0.75,0.08c0.25,0,0.49-0.03,0.73-0.08h130.27c0.25,0.05,0.5,0.08,0.75,0.08
							c0.25,0,0.49-0.03,0.73-0.08h130.27c0.25,0.05,0.5,0.08,0.75,0.08c0.25,0,0.49-0.03,0.73-0.08h129.8
							c0.25,0.05,0.5,0.08,0.75,0.08c0.25,0,0.49-0.03,0.73-0.08h130.27c0.25,0.05,0.5,0.08,0.75,0.08c0.24,0,0.49-0.03,0.73-0.08
							h130.27c0.25,0.05,0.5,0.08,0.75,0.08c0.24,0,0.49-0.03,0.73-0.08h130.27c0.25,0.05,0.5,0.08,0.75,0.08
							c0.25,0,0.49-0.03,0.73-0.08h133.7c0.25,0.05,0.5,0.08,0.75,0.08c0.25,0,0.49-0.03,0.73-0.08h130.27
							c0.25,0.05,0.5,0.08,0.75,0.08c0.25,0,0.49-0.03,0.73-0.08h129.34c0.25,0.05,0.5,0.08,0.75,0.08c0.24,0,0.49-0.03,0.73-0.08
							h130.27c0.25,0.05,0.5,0.08,0.75,0.08c0.25,0,0.49-0.03,0.73-0.08h130.27c0.25,0.05,0.5,0.08,0.75,0.08
							c0.25,0,0.49-0.03,0.73-0.08h130.27c0.25,0.05,0.5,0.08,0.75,0.08c0.25,0,0.49-0.03,0.73-0.08h129.8
							c0.25,0.05,0.5,0.08,0.75,0.08c0.25,0,0.49-0.03,0.73-0.08h130.27c0.25,0.05,0.5,0.08,0.75,0.08c0.25,0,0.49-0.03,0.73-0.08
							h130.27c0.25,0.05,0.5,0.08,0.75,0.08c0.25,0,0.49-0.03,0.73-0.08h130.27c0.25,0.05,0.5,0.08,0.75,0.08
							c0.25,0,0.49-0.03,0.73-0.08h130.7c0.25,0.05,0.5,0.08,0.75,0.08c0.25,0,0.49-0.03,0.73-0.08h130.27
							c0.25,0.05,0.5,0.08,0.75,0.08c0.25,0,0.49-0.03,0.73-0.08h129.34c0.25,0.05,0.5,0.08,0.75,0.08c0.25,0,0.49-0.03,0.73-0.08
							h130.27c0.25,0.05,0.5,0.08,0.75,0.08c0.25,0,0.49-0.03,0.73-0.08h130.27c0.25,0.05,0.5,0.08,0.75,0.08
							c0.25,0,0.49-0.03,0.73-0.08h130.27c0.25,0.05,0.5,0.08,0.75,0.08c0.25,0,0.49-0.03,0.73-0.08h129.8
							c0.25,0.05,0.5,0.08,0.75,0.08c0.24,0,0.49-0.03,0.73-0.08h130.27c0.25,0.05,0.5,0.08,0.75,0.08c0.25,0,0.49-0.03,0.73-0.08
							h130.27c0.25,0.05,0.5,0.08,0.75,0.08c0.25,0,0.49-0.03,0.73-0.08h130.27c0.25,0.05,0.5,0.08,0.75,0.08
							c0.25,0,0.49-0.03,0.73-0.08h101.15V893.52z M118.7,776.13h120.02L118.7,888.86V776.13z M243.46,893.52H123.94l119.51-112.26
							V893.52z M250.44,776.13h120.02L250.44,888.86V776.13z M374.27,893.52H255.68l118.58-111.38V893.52z M381.25,776.13h120.02
							L381.25,888.86V776.13z M506.01,893.52H386.49l119.51-112.26V893.52z M512.99,776.13h120.02L512.99,888.86V776.13z
							 M637.75,893.52H518.23l119.51-112.26V893.52z M644.73,776.13h120.02L644.73,888.86V776.13z M769.49,893.52H649.97
							l119.51-112.25V893.52z M776.48,776.13h120.02L776.48,888.86V776.13z M900.76,893.52H781.72l119.05-111.82V893.52z
							 M907.75,776.13h120.02L907.75,888.86V776.13z M1032.51,893.52H912.99l119.51-112.26V893.52z M1039.49,776.13h120.02
							l-120.02,112.73V776.13z M1164.25,893.52h-119.51l119.51-112.25V893.52z M1171.23,776.13h120.02l-120.02,112.73V776.13z
							 M1295.99,893.52h-119.51l119.51-112.26V893.52z M1302.97,776.13h120.02l-120.02,112.73V776.13z M1431.16,893.52h-119.52
							l119.52-112.26V893.52z M1438.14,776.13h120.02l-120.02,112.73V776.13z M1562.9,893.52h-119.51l119.51-112.26V893.52z
							 M1569.89,776.13h120.02l-120.02,112.73V776.13z M1693.71,893.52h-118.58l118.58-111.38V893.52z M1700.7,776.13h120.02
							L1700.7,888.86V776.13z M1825.45,893.52h-119.51l119.51-112.26V893.52z M1832.44,776.13h120.02l-120.02,112.73V776.13z
							 M1957.19,893.52h-119.51l119.51-112.26V893.52z M1964.18,776.13h120.02l-120.02,112.73V776.13z M2088.93,893.52h-119.52
							l119.52-112.25V893.52z M2095.92,776.13h120.02l-120.02,112.73V776.13z M2220.21,893.52h-119.05l119.05-111.82V893.52z
							 M2227.19,776.13h120.02l-120.02,112.73V776.13z M2351.95,893.52h-119.51l119.51-112.26V893.52z M2358.93,776.13h120.02
							l-120.02,112.73V776.13z M2483.69,893.52h-119.51l119.51-112.25V893.52z M2490.68,776.13h120.02l-120.02,112.73V776.13z
							 M2615.43,893.52h-119.51l119.51-112.26V893.52z M2622.42,776.13h120.02l-120.02,112.73V776.13z M2747.61,893.52h-119.51
							l119.51-112.26V893.52z M2754.59,776.13h120.02l-120.02,112.73V776.13z M2879.35,893.52h-119.51l119.51-112.26V893.52z
							 M2886.33,776.13h120.02l-120.02,112.73V776.13z M3010.16,893.52h-118.58l118.58-111.38V893.52z M3017.14,776.13h120.02
							l-120.02,112.73V776.13z M3141.9,893.52h-119.51l119.51-112.26V893.52z M3148.89,776.13h120.02l-120.02,112.73V776.13z
							 M3273.64,893.52h-119.51l119.51-112.26V893.52z M3280.63,776.13h120.02l-120.02,112.73V776.13z M3405.38,893.52h-119.51
							l119.51-112.25V893.52z M3412.37,776.13h120.02l-120.02,112.73V776.13z M3536.66,893.52h-119.05l119.05-111.82V893.52z
							 M3543.64,776.13h120.02l-120.02,112.73V776.13z M3668.4,893.52h-119.51l119.51-112.26V893.52z M3675.38,776.13h120.02
							l-120.02,112.73V776.13z M3800.14,893.52h-119.51l119.51-112.25V893.52z M3807.13,776.13h120.02l-120.02,112.73V776.13z
							 M3931.88,893.52h-119.51l119.51-112.26V893.52z"/>
					</g>
				</g>
				<g>
					<g>
						<path class="st3" d="M4037.25,442.08h-343.68l343.68-322.81V95.61H13.18v19.02h329.74L13.18,424.35v36.76h350.61
							c0.69,0.15,1.39,0.23,2.08,0.23c0.68,0,1.36-0.09,2.03-0.23h363.36c0.69,0.15,1.39,0.23,2.08,0.23c0.68,0,1.36-0.09,2.03-0.23
							h360.76c0.69,0.15,1.39,0.23,2.08,0.23c0.68,0,1.36-0.09,2.03-0.23h363.36c0.69,0.15,1.39,0.23,2.08,0.23
							c0.68,0,1.36-0.09,2.03-0.23h363.36c0.69,0.15,1.39,0.23,2.08,0.23c0.68,0,1.36-0.09,2.03-0.23h363.36
							c0.69,0.15,1.39,0.23,2.08,0.23c0.68,0,1.36-0.09,2.03-0.23h362.06c0.69,0.15,1.39,0.23,2.08,0.23c0.68,0,1.36-0.09,2.03-0.23
							h363.36c0.69,0.15,1.39,0.23,2.08,0.23c0.68,0,1.36-0.09,2.03-0.23h363.36c0.69,0.15,1.39,0.23,2.08,0.23
							c0.68,0,1.36-0.09,2.03-0.23h363.36c0.69,0.15,1.39,0.23,2.08,0.23c0.68,0,1.36-0.09,2.03-0.23h366.02V442.08z M356.13,442.08
							H22.76l333.37-313.12V442.08z M375.62,114.63h334.77L375.62,429.07V114.63z M723.6,442.08H390.23L723.6,128.96V442.08z
							 M743.09,114.63h334.77L743.09,429.07V114.63z M1088.47,442.08H757.7l330.77-310.68V442.08z M1107.96,114.63h334.77
							l-334.77,314.44V114.63z M1455.94,442.08h-333.37l333.37-313.12V442.08z M1475.43,114.63h334.77l-334.77,314.44V114.63z
							 M1823.41,442.08h-333.37l333.37-313.12V442.08z M1842.9,114.63h334.77L1842.9,429.07V114.63z M2190.88,442.08h-333.37
							l333.37-313.12V442.08z M2210.37,114.63h334.77l-334.77,314.44V114.63z M2557.05,442.08h-332.07l332.07-311.9V442.08z
							 M2576.54,114.63h334.77l-334.77,314.44V114.63z M2924.52,442.08h-333.37l333.37-313.12V442.08z M2944.01,114.63h334.77
							l-334.77,314.44V114.63z M3291.99,442.08h-333.37l333.37-313.12V442.08z M3311.48,114.63h334.77l-334.77,314.44V114.63z
							 M3659.46,442.08H3326.1l333.37-313.12V442.08z M3678.95,114.63h334.77l-334.77,314.44V114.63z"/>
					</g>
				</g>
				<g>
					<g>
						<path class="st4" d="M4037.25,710.99h-16.86V527.54l16.86,15.84v-15.67l-9.12-8.57h9.12V508H13.18v11.15h118.59v184.23
							L13.18,591.99v15.66l110.03,103.34H13.18v11.15h123.11c0.39,0.08,0.79,0.14,1.19,0.14c0.41,0,0.82-0.05,1.22-0.14H351.6
							c0.39,0.08,0.79,0.14,1.19,0.14c0.41,0,0.82-0.05,1.22-0.14h211.37c0.39,0.08,0.79,0.14,1.19,0.14c0.41,0,0.82-0.05,1.22-0.14
							h212.89c0.39,0.08,0.79,0.14,1.19,0.14c0.41,0,0.82-0.05,1.22-0.14h213.61c0.39,0.08,0.79,0.14,1.19,0.14
							c0.41,0,0.82-0.05,1.22-0.14H1212c0.39,0.08,0.79,0.14,1.19,0.14c0.41,0,0.82-0.05,1.22-0.14h212.89
							c0.39,0.08,0.79,0.14,1.19,0.14c0.41,0,0.82-0.05,1.22-0.14h212.89c0.39,0.08,0.79,0.14,1.19,0.14c0.41,0,0.82-0.05,1.22-0.14
							h212.13c0.39,0.08,0.79,0.14,1.19,0.14c0.41,0,0.82-0.05,1.22-0.14h212.89c0.39,0.08,0.79,0.14,1.19,0.14
							c0.41,0,0.82-0.05,1.22-0.14h212.89c0.39,0.08,0.79,0.14,1.19,0.14c0.41,0,0.82-0.05,1.22-0.14h212.89
							c0.39,0.08,0.79,0.14,1.19,0.14c0.41,0,0.82-0.05,1.22-0.14h211.37c0.39,0.08,0.79,0.14,1.19,0.14c0.41,0,0.82-0.05,1.22-0.14
							h212.89c0.39,0.08,0.79,0.14,1.19,0.14c0.41,0,0.82-0.05,1.22-0.14h218.5c0.39,0.08,0.79,0.14,1.19,0.14
							c0.41,0,0.82-0.05,1.22-0.14h212.89c0.39,0.08,0.79,0.14,1.19,0.14c0.41,0,0.82-0.05,1.22-0.14h212.89
							c0.39,0.08,0.79,0.14,1.19,0.14c0.41,0,0.82-0.05,1.22-0.14h212.89c0.39,0.08,0.79,0.14,1.19,0.14c0.41,0,0.82-0.05,1.22-0.14
							h212.13c0.39,0.08,0.79,0.14,1.19,0.14c0.41,0,0.82-0.05,1.22-0.14h21.35V710.99z M143.19,710.99V527.54l195.32,183.46H143.19
							z M347.07,703.37L150.93,519.14h196.15V703.37z M358.49,710.99V528.97l193.8,182.03H358.49z M560.85,703.37L364.71,519.14
							h196.15V703.37z M572.27,710.99V527.54l195.32,183.46H572.27z M776.16,703.37L580.01,519.14h196.14V703.37z M787.57,710.99
							V527.54L982.9,710.99H787.57z M992.17,703.37L796.03,519.14h196.15V703.37z M1003.59,710.99V527.54l195.32,183.46H1003.59z
							 M1207.47,703.37l-196.15-184.23h196.15V703.37z M1218.89,710.99V527.54l195.32,183.46H1218.89z M1422.78,703.37
							l-196.15-184.23h196.15V703.37z M1434.19,710.99V527.54l195.32,183.46H1434.19z M1638.08,703.37l-196.15-184.23h196.15V703.37
							z M1649.5,710.99V528.25l194.56,182.74H1649.5z M1852.62,703.37l-196.15-184.23h196.15V703.37z M1864.04,710.99V527.54
							l195.32,183.46H1864.04z M2067.92,703.37l-196.15-184.23h196.15V703.37z M2079.34,710.99V527.54l195.32,183.46H2079.34z
							 M2283.23,703.37l-196.15-184.23h196.15V703.37z M2294.64,710.99V527.54l195.32,183.46H2294.64z M2498.53,703.37
							l-196.15-184.23h196.15V703.37z M2509.95,710.99V528.97l193.8,182.03H2509.95z M2712.31,703.37l-196.15-184.23h196.15V703.37z
							 M2723.73,710.99V527.54l195.32,183.46H2723.73z M2927.61,703.37l-196.15-184.23h196.15V703.37z M2939.03,710.99V527.54
							l195.32,183.46H2939.03z M3148.52,703.37l-196.15-184.23h196.15V703.37z M3159.94,710.99V527.54l195.32,183.46H3159.94z
							 M3363.82,703.37l-196.15-184.23h196.15V703.37z M3375.24,710.99V527.54l195.32,183.46H3375.24z M3579.12,703.37
							l-196.15-184.23h196.15V703.37z M3590.54,710.99V527.54l195.32,183.46H3590.54z M3794.43,703.37l-196.15-184.23h196.15V703.37
							z M3805.84,710.99V528.25l194.56,182.74H3805.84z M4008.97,703.37l-196.15-184.23h196.15V703.37z"/>
					</g>
				</g>
			</g>
		</g>
		<g class="st1">
			<g>
				<g id="Arm_03_29_">
					<g>
						<g>
							<g>
								
									<rect x="2343.97" y="1103.44" transform="matrix(0.5323 -0.8465 0.8465 0.5323 127.9798 2537.3933)" class="st3" width="32.98" height="98.86"/>
							</g>
							<g>
								<g>
									
										<rect x="2437.6" y="1202.3" transform="matrix(0.5231 -0.8523 0.8523 0.5231 139.7278 2668.0007)" class="st3" width="32.6" height="13.69"/>
									
										<rect x="2453.68" y="1204.79" transform="matrix(0.5231 -0.8523 0.8523 0.5231 139.2884 2678.9736)" class="st3" width="19.6" height="20.46"/>
									
										<rect x="2437.6" y="1202.3" transform="matrix(0.5231 -0.8523 0.8523 0.5231 139.7278 2668.0007)" class="st3" width="32.6" height="13.69"/>
									<g>
										<path class="st3" d="M2467.11,1237.27l-0.01,0.02l0-0.03l-0.01,0l0.01-0.01l-0.74-3.29c-1.12-5-0.25-10.24,2.43-14.6l0,0
											c2.68-4.37,6.96-7.52,11.92-8.78l3.27-0.83l0.01-0.01l0.01,0l0.02-0.01l-0.01,0.02l13.81,8.47l0-0.01l0.72,3.35
											c1.07,4.95,0.18,10.13-2.47,14.45l-0.09,0.14c-2.65,4.32-6.87,7.45-11.77,8.74l-3.31,0.87l0-0.01L2467.11,1237.27z"/>
										
											<rect x="2483.58" y="1227.6" transform="matrix(0.5231 -0.8523 0.8523 0.5231 137.018 2713.1597)" class="st3" width="18.65" height="13.09"/>
									</g>
									<polygon class="st3" points="2481.49,1222.67 2529.14,1251.92 2530.29,1256.95 2525.17,1258.39 2477.52,1229.14 									
										"/>
								</g>
								<g>
									<g>
										<polygon class="st3" points="2443.55,1225.88 2464.14,1192.33 2455.96,1163.63 2414.25,1231.59 										"/>
									</g>
								</g>
								<g>
									<g>
										<polygon class="st3" points="2392.86,1146.89 2370.76,1182.9 2372.15,1209.17 2416.92,1136.24 										"/>
									</g>
								</g>
								
									<rect x="2368.7" y="1158.74" transform="matrix(0.5231 -0.8523 0.8523 0.5231 141.5682 2622.4155)" class="st3" width="90.77" height="51.93"/>
							</g>
						</g>
						<rect x="2132.78" y="444.09" class="st3" width="332.31" height="74.18"/>
						<path class="st3" d="M2331.62,1053.69c27.7-16.01,44.86-47.7,41.72-77.08c-2.94-27.44-22.23-48.23-54.34-58.54
							c-38.2-12.27-40.34-43.72-39.48-56.67c1.76-26.66,18.97-51.2,38.35-54.7l-0.94-5.21c-22,3.98-40.76,30.14-42.7,59.57
							c-0.89,13.5,2.03,26.11,8.46,36.48c7.42,11.97,19.09,20.58,34.69,25.59c29.99,9.63,47.99,28.83,50.69,54.06
							c2.93,27.36-13.15,56.94-39.1,71.93L2331.62,1053.69z"/>
						<path class="st3" d="M2269.23,774.38l-1.77-14.89c-6.45,0.77-30.06-4.19-50.2-21.01c-17.75-14.82-27.47-34.11-28.9-57.34
							c-1.37-22.22,4.31-40.5,16.86-54.32c24.89-27.41,69.07-29.26,69.52-29.27l-0.49-14.98c-2.06,0.07-50.83,2-80.05,34.1
							c-15.42,16.94-22.42,38.94-20.79,65.4c1.67,27.12,13.51,50.61,34.25,67.93C2230.32,768.92,2257.8,775.73,2269.23,774.38z"/>
						<g>
							<path class="st3" d="M2216.6,559.66h163.96c25.14,0,45.51-20.38,45.51-45.51v0c0-25.14-20.38-45.51-45.51-45.51H2216.6
								c-25.14,0-45.51,20.38-45.51,45.51v0C2171.08,539.28,2191.46,559.66,2216.6,559.66z"/>
							<rect x="2277.01" y="612.45" class="st3" width="47.31" height="162.86"/>
							
								<rect x="2329.01" y="989.77" transform="matrix(0.5218 -0.8531 0.8531 0.5218 288.9269 2525.5139)" class="st3" width="136.33" height="30.54"/>
							<path class="st3" d="M2347.93,508.17v113.61c0,26.1-21.16,47.27-47.27,47.27l0,0c-26.1,0-47.27-21.16-47.27-47.27V508.17
								H2347.93z"/>
							<g>
								<path class="st3" d="M2275.26,610.61c-6.03,13.97,0.43,30.25,14.4,36.28c13.97,6.03,30.25-0.43,36.28-14.4
									c6.03-13.97-0.43-30.25-14.4-36.28C2297.56,590.17,2281.29,596.63,2275.26,610.61z"/>
							</g>
							<g>
								<g>
									<path class="st3" d="M2359.17,504.21c-4.96,11.84,0.63,25.5,12.47,30.46s25.5-0.63,30.46-12.47
										c4.96-11.84-0.63-25.5-12.47-30.46C2377.8,486.79,2364.14,492.38,2359.17,504.21z"/>
								</g>
								<g>
									<path class="st3" d="M2195.23,505.13c-5.09,11.78,0.36,25.51,12.14,30.59c11.78,5.09,25.51-0.36,30.59-12.14
										c5.09-11.78-0.36-25.51-12.14-30.59C2214.04,487.9,2200.32,493.35,2195.23,505.13z"/>
								</g>
							</g>
							<g>
								<path class="st3" d="M2485.61,891.39l-128.55-169.86c-19.71-26.04-56.79-31.17-82.83-11.47v0
									c-26.04,19.71-31.17,56.79-11.47,82.83l128.55,169.86c19.71,26.04,56.79,31.17,82.83,11.47h0
									C2500.18,954.51,2505.32,917.43,2485.61,891.39z"/>
								<g>
									<g>
										<path class="st3" d="M2316.39,787.15c16.15-4.14,25.92-20.65,21.78-36.8c-4.14-16.15-20.65-25.92-36.8-21.78
											c-16.15,4.14-25.93,20.65-21.79,36.8C2283.73,781.52,2300.23,791.29,2316.39,787.15z"/>
									</g>
									<g>
										<path class="st3" d="M2445.87,956.27c16.2-3.97,26.14-20.37,22.17-36.57c-3.97-16.2-20.37-26.14-36.57-22.17
											c-16.2,3.97-26.14,20.37-22.18,36.57C2413.27,950.29,2429.68,960.24,2445.87,956.27z"/>
									</g>
								</g>
							</g>
							<g>
								<path class="st3" d="M2352.89,1014.38l-60.38,97.84c-9.26,15-4.6,34.66,10.4,43.92l0,0c15,9.26,34.66,4.6,43.92-10.4
									l60.38-97.84c9.26-15,4.6-34.66-10.4-43.92l0,0C2381.81,994.73,2362.14,999.38,2352.89,1014.38z"/>
								<g>
									<g>
										<path class="st3" d="M2330.87,1121.74c-4.21-5.89-12.42-7.25-18.31-3.04c-5.89,4.21-7.25,12.42-3.04,18.31
											c4.21,5.89,12.42,7.25,18.31,3.04C2333.72,1135.84,2335.08,1127.63,2330.87,1121.74z"/>
									</g>
								</g>
								<g>
									<g>
										<path class="st3" d="M2391.25,1021.14c-4.21-5.89-12.42-7.25-18.31-3.04c-5.89,4.21-7.25,12.42-3.04,18.31
											c4.21,5.89,12.42,7.25,18.31,3.04C2394.1,1035.24,2395.46,1027.03,2391.25,1021.14z"/>
									</g>
								</g>
							</g>
						</g>
						<g id="Arm_03_30_">
							<g>
								<g>
									<g>
										
											<rect x="554.4" y="1017.65" transform="matrix(0.9999 -0.0134 0.0134 0.9999 -14.1726 7.7223)" class="st3" width="28.72" height="86.1"/>
									</g>
									<g>
										<g>
											<g>
												<polygon class="st3" points="588.47,1081.55 551.69,1082.45 533.14,1095.91 607.65,1094.1 												"/>
											</g>
										</g>
										<g>
											<path class="st3" d="M513.81,1246.51c1.47,0,2.94-0.65,3.92-1.9c1.7-2.16,1.33-5.29-0.83-7l-14.3-11.26l36.3-91.4
												l59.7-1.7l46.24,90.36l-10.89,8.35c-2.18,1.67-2.6,4.8-0.92,6.99c1.67,2.18,4.8,2.6,6.99,0.92L654.2,1229
												c1.91-1.46,2.5-4.08,1.4-6.22l-49.56-96.86c-0.88-1.71-2.66-2.77-4.58-2.71l-66.13,1.88c-1.99,0.06-3.75,1.29-4.49,3.14
												l-38.88,97.9c-0.81,2.05-0.18,4.39,1.55,5.75l17.22,13.56C511.64,1246.16,512.73,1246.51,513.81,1246.51z"/>
											
												<rect x="525" y="1094.12" transform="matrix(0.9996 -0.0285 0.0285 0.9996 -31.5592 16.6372)" class="st3" width="86.74" height="44.56"/>
										</g>
									</g>
								</g>
								<path class="st3" d="M578.05,1246.2c0.52,0,1.05-0.08,1.58-0.26c2.61-0.87,4.02-3.69,3.15-6.3l-6.39-19.18l-3.29-97.29
									c-0.09-2.75-2.37-4.9-5.15-4.81c-2.75,0.09-4.9,2.4-4.81,5.15l3.31,98.01c0.02,0.48,0.1,0.95,0.25,1.41l6.62,19.87
									C574.02,1244.88,575.96,1246.2,578.05,1246.2z"/>
							</g>
							<rect x="433.15" y="432.96" class="st3" width="312.5" height="69.75"/>
							<path class="st3" d="M570.22,1027.23c26.05-15.05,42.18-44.86,39.23-72.48c-2.76-25.81-20.91-45.36-51.1-55.05
								c-35.92-11.54-37.93-41.11-37.13-53.29c1.65-25.07,17.83-48.14,36.07-51.44l-0.89-4.9c-20.69,3.74-38.33,28.35-40.15,56.02
								c-0.84,12.7,1.91,24.56,7.95,34.3c6.98,11.25,17.95,19.35,32.62,24.06c28.2,9.06,45.13,27.11,47.67,50.84
								c2.75,25.73-12.37,53.54-36.77,67.64L570.22,1027.23z"/>
							<path class="st3" d="M531.66,740.87l0.76-14.08c-6.1-0.33-27.18-8.72-43.13-27.55c-14.06-16.58-19.96-36.02-17.54-57.78
								c2.31-20.81,10.51-36.83,24.37-47.62c27.47-21.39,68.71-15.99,69.12-15.93l1.96-13.96c-1.92-0.27-47.41-6.33-79.66,18.71
								c-17.02,13.21-27.04,32.47-29.79,57.24c-2.82,25.4,4.37,49.07,20.8,68.45C496.49,729.55,520.85,740.29,531.66,740.87z"/>
							<g>
								<g>
									<path class="st3" d="M511.96,541.64h154.19c23.64,0,42.8-19.16,42.8-42.8v0c0-23.64-19.16-42.8-42.8-42.8H511.96
										c-23.64,0-42.8,19.16-42.8,42.8v0C469.17,522.48,488.33,541.64,511.96,541.64z"/>
								</g>
								<g>
									<rect x="568.78" y="591.28" class="st3" width="44.49" height="153.15"/>
								</g>
								<g>
									
										<rect x="463.29" y="859.06" transform="matrix(0.7426 -0.6697 0.6697 0.7426 -495.3 557.4499)" class="st3" width="28.72" height="128.2"/>
								</g>
								<g>
									<path class="st3" d="M635.47,493.22v106.83c0,24.55-19.9,44.45-44.45,44.45l0,0c-24.55,0-44.45-19.9-44.45-44.45V493.22
										H635.47z"/>
								</g>
								<g>
									<path class="st3" d="M567.13,589.55c-5.67,13.14,0.4,28.44,13.54,34.12c13.14,5.67,28.44-0.4,34.12-13.54
										c5.67-13.14-0.4-28.44-13.54-34.12C588.1,570.33,572.8,576.41,567.13,589.55z"/>
								</g>
								<g>
									<g>
										<path class="st3" d="M646.04,489.5c-4.67,11.13,0.59,23.98,11.72,28.65c11.13,4.67,23.98-0.59,28.65-11.72
											c4.67-11.13-0.59-23.98-11.72-28.65C663.56,473.11,650.71,478.37,646.04,489.5z"/>
									</g>
									<g>
										<path class="st3" d="M491.87,490.36c-4.78,11.08,0.34,23.99,11.42,28.77c11.08,4.78,23.99-0.34,28.77-11.42
											c4.78-11.08-0.34-23.99-11.42-28.77C509.56,474.16,496.66,479.28,491.87,490.36z"/>
									</g>
								</g>
								<g>
									<g>
										<path class="st3" d="M465.41,904.6L613.2,769.38c22.66-20.73,24.22-55.9,3.49-78.56l0,0
											c-20.73-22.66-55.9-24.22-78.56-3.49L390.34,822.55c-22.66,20.73-24.22,55.9-3.49,78.56l0,0
											C407.58,923.77,442.75,925.33,465.41,904.6z"/>
									</g>
									<g>
										<g>
											<path class="st3" d="M548.2,737.04c5.29,14.76,21.6,22.47,36.36,17.18c14.76-5.29,22.47-21.6,17.18-36.36
												c-5.29-14.76-21.6-22.47-36.36-17.18C550.62,705.96,542.91,722.27,548.2,737.04z"/>
										</g>
										<g>
											<path class="st3" d="M401.18,873.07c5.13,14.82,21.36,22.69,36.18,17.56c14.82-5.13,22.69-21.36,17.56-36.18
												c-5.13-14.82-21.36-22.7-36.18-17.56C403.93,842.02,396.05,858.25,401.18,873.07z"/>
										</g>
									</g>
								</g>
								<g>
									<g>
										<path class="st3" d="M474.24,965.59l72.09,80.57c11.05,12.35,30.02,13.41,42.38,2.35l0,0
											c12.35-11.05,13.41-30.02,2.35-42.38l-72.09-80.57c-11.05-12.35-30.02-13.41-42.38-2.35h0
											C464.24,934.26,463.19,953.24,474.24,965.59z"/>
									</g>
									<g>
										<g>
											<path class="st3" d="M565.16,1014.12c-6.43,2.22-9.85,9.27-7.63,15.7c2.22,6.43,9.27,9.85,15.7,7.63
												c6.43-2.22,9.85-9.27,7.63-15.7C578.64,1015.32,571.59,1011.9,565.16,1014.12z"/>
										</g>
									</g>
									<g>
										<g>
											<path class="st3" d="M490.59,932.81c-6.43,2.22-9.85,9.27-7.63,15.7c2.22,6.43,9.27,9.85,15.7,7.63
												c6.43-2.22,9.85-9.27,7.63-15.7C504.06,934.01,497.02,930.58,490.59,932.81z"/>
										</g>
									</g>
								</g>
							</g>
							<g>
								<g>
									<path class="st3" d="M413.33,868.86c2.81,8.12,11.7,12.43,19.82,9.62c8.12-2.81,12.43-11.7,9.62-19.82
										c-2.81-8.12-11.7-12.43-19.82-9.62C414.83,851.85,410.52,860.74,413.33,868.86z"/>
								</g>
							</g>
						</g>
					</g>
				</g>
				<g>
					<g>
						<g>
							<rect x="-312.12" y="447.27" class="st3" width="5.69" height="9.1"/>
							<path class="st3" d="M2285.67,456.37h-11.37v-9.1h11.37V456.37z M2262.94,456.37h-11.37v-9.1h11.37V456.37z M2240.2,456.37
								h-11.37v-9.1h11.37V456.37z M2217.46,456.37h-11.37v-9.1h11.37V456.37z M2194.72,456.37h-11.37v-9.1h11.37V456.37z
								 M2171.98,456.37h-11.37v-9.1h11.37V456.37z M2149.25,456.37h-11.37v-9.1h11.37V456.37z M2126.51,456.37h-11.37v-9.1h11.37
								V456.37z M2103.77,456.37h-11.37v-9.1h11.37V456.37z M2081.03,456.37h-11.37v-9.1h11.37V456.37z M2058.3,456.37h-11.37v-9.1
								h11.37V456.37z M2035.56,456.37h-11.37v-9.1h11.37V456.37z M2012.82,456.37h-11.37v-9.1h11.37V456.37z M1990.08,456.37
								h-11.37v-9.1h11.37V456.37z M1967.34,456.37h-11.37v-9.1h11.37V456.37z M1944.61,456.37h-11.37v-9.1h11.37V456.37z
								 M1921.87,456.37h-11.37v-9.1h11.37V456.37z M1899.13,456.37h-11.37v-9.1h11.37V456.37z M1876.39,456.37h-11.37v-9.1h11.37
								V456.37z M1853.66,456.37h-11.37v-9.1h11.37V456.37z M1830.92,456.37h-11.37v-9.1h11.37V456.37z M1808.18,456.37h-11.37v-9.1
								h11.37V456.37z M1785.44,456.37h-11.37v-9.1h11.37V456.37z M1762.7,456.37h-11.37v-9.1h11.37V456.37z M1739.97,456.37h-11.37
								v-9.1h11.37V456.37z M1717.23,456.37h-11.37v-9.1h11.37V456.37z M1694.49,456.37h-11.37v-9.1h11.37V456.37z M1671.75,456.37
								h-11.37v-9.1h11.37V456.37z M1649.02,456.37h-11.37v-9.1h11.37V456.37z M1626.28,456.37h-11.37v-9.1h11.37V456.37z
								 M1603.54,456.37h-11.37v-9.1h11.37V456.37z M1580.8,456.37h-11.37v-9.1h11.37V456.37z M1558.06,456.37h-11.37v-9.1h11.37
								V456.37z M1535.33,456.37h-11.37v-9.1h11.37V456.37z M1512.59,456.37h-11.37v-9.1h11.37V456.37z M1489.85,456.37h-11.37v-9.1
								h11.37V456.37z M1467.11,456.37h-11.37v-9.1h11.37V456.37z M1444.38,456.37h-11.37v-9.1h11.37V456.37z M1421.64,456.37
								h-11.37v-9.1h11.37V456.37z M1398.9,456.37h-11.37v-9.1h11.37V456.37z M1376.16,456.37h-11.37v-9.1h11.37V456.37z
								 M1353.42,456.37h-11.37v-9.1h11.37V456.37z M1330.69,456.37h-11.37v-9.1h11.37V456.37z M1307.95,456.37h-11.37v-9.1h11.37
								V456.37z M1285.21,456.37h-11.37v-9.1h11.37V456.37z M1262.47,456.37h-11.37v-9.1h11.37V456.37z M1239.73,456.37h-11.37v-9.1
								h11.37V456.37z M1217,456.37h-11.37v-9.1H1217V456.37z M1194.26,456.37h-11.37v-9.1h11.37V456.37z M1171.52,456.37h-11.37
								v-9.1h11.37V456.37z M1148.78,456.37h-11.37v-9.1h11.37V456.37z M1126.05,456.37h-11.37v-9.1h11.37V456.37z M1103.31,456.37
								h-11.37v-9.1h11.37V456.37z M1080.57,456.37h-11.37v-9.1h11.37V456.37z M1057.83,456.37h-11.37v-9.1h11.37V456.37z
								 M1035.09,456.37h-11.37v-9.1h11.37V456.37z M1012.36,456.37h-11.37v-9.1h11.37V456.37z M989.62,456.37h-11.37v-9.1h11.37
								V456.37z M966.88,456.37h-11.37v-9.1h11.37V456.37z M944.14,456.37h-11.37v-9.1h11.37V456.37z M921.41,456.37h-11.37v-9.1
								h11.37V456.37z M898.67,456.37H887.3v-9.1h11.37V456.37z M875.93,456.37h-11.37v-9.1h11.37V456.37z M853.19,456.37h-11.37
								v-9.1h11.37V456.37z M830.45,456.37h-11.37v-9.1h11.37V456.37z M807.72,456.37h-11.37v-9.1h11.37V456.37z M784.98,456.37
								h-11.37v-9.1h11.37V456.37z M762.24,456.37h-11.37v-9.1h11.37V456.37z M739.5,456.37h-11.37v-9.1h11.37V456.37z
								 M716.77,456.37H705.4v-9.1h11.37V456.37z M694.03,456.37h-11.37v-9.1h11.37V456.37z M671.29,456.37h-11.37v-9.1h11.37
								V456.37z M648.55,456.37h-11.37v-9.1h11.37V456.37z M625.81,456.37h-11.37v-9.1h11.37V456.37z M603.08,456.37h-11.37v-9.1
								h11.37V456.37z M580.34,456.37h-11.37v-9.1h11.37V456.37z M557.6,456.37h-11.37v-9.1h11.37V456.37z M534.86,456.37h-11.37
								v-9.1h11.37V456.37z M512.13,456.37h-11.37v-9.1h11.37V456.37z M489.39,456.37h-11.37v-9.1h11.37V456.37z M466.65,456.37
								h-11.37v-9.1h11.37V456.37z M443.91,456.37h-11.37v-9.1h11.37V456.37z M421.17,456.37h-11.37v-9.1h11.37V456.37z
								 M398.44,456.37h-11.37v-9.1h11.37V456.37z M375.7,456.37h-11.37v-9.1h11.37V456.37z M352.96,456.37h-11.37v-9.1h11.37
								V456.37z M330.22,456.37h-11.37v-9.1h11.37V456.37z M307.49,456.37h-11.37v-9.1h11.37V456.37z M284.75,456.37h-11.37v-9.1
								h11.37V456.37z M262.01,456.37h-11.37v-9.1h11.37V456.37z M239.27,456.37H227.9v-9.1h11.37V456.37z M216.53,456.37h-11.37
								v-9.1h11.37V456.37z M193.8,456.37h-11.37v-9.1h11.37V456.37z M171.06,456.37h-11.37v-9.1h11.37V456.37z M148.32,456.37
								h-11.37v-9.1h11.37V456.37z M125.58,456.37h-11.37v-9.1h11.37V456.37z M102.85,456.37H91.48v-9.1h11.37V456.37z
								 M80.11,456.37H68.74v-9.1h11.37V456.37z M57.37,456.37H46v-9.1h11.37V456.37z M34.63,456.37H23.26v-9.1h11.37V456.37z
								 M11.89,456.37H0.52v-9.1h11.37V456.37z M-10.84,456.37h-11.37v-9.1h11.37V456.37z M-33.58,456.37h-11.37v-9.1h11.37V456.37z
								 M-56.32,456.37h-11.37v-9.1h11.37V456.37z M-79.06,456.37h-11.37v-9.1h11.37V456.37z M-101.8,456.37h-11.37v-9.1h11.37
								V456.37z M-124.53,456.37h-11.37v-9.1h11.37V456.37z M-147.27,456.37h-11.37v-9.1h11.37V456.37z M-170.01,456.37h-11.37v-9.1
								h11.37V456.37z M-192.75,456.37h-11.37v-9.1h11.37V456.37z M-215.48,456.37h-11.37v-9.1h11.37V456.37z M-238.22,456.37
								h-11.37v-9.1h11.37V456.37z M-260.96,456.37h-11.37v-9.1h11.37V456.37z M-283.7,456.37h-11.37v-9.1h11.37V456.37z"/>
							<rect x="2297.04" y="447.27" class="st3" width="5.68" height="9.1"/>
						</g>
						<path class="st3" d="M2319.91,451.25H-318.93c-4.71,0-8.53-3.82-8.53-8.53c0-4.71,3.82-8.53,8.53-8.53h2638.85
							c4.71,0,8.53,3.82,8.53,8.53C2328.44,447.43,2324.62,451.25,2319.91,451.25z"/>
					</g>
					<g>
						<g>
							<rect x="2318.9" y="447.27" class="st3" width="5.69" height="9.1"/>
							<path class="st3" d="M4916.7,456.37h-11.37v-9.1h11.37V456.37z M4893.96,456.37h-11.37v-9.1h11.37V456.37z M4871.23,456.37
								h-11.37v-9.1h11.37V456.37z M4848.49,456.37h-11.37v-9.1h11.37V456.37z M4825.75,456.37h-11.37v-9.1h11.37V456.37z
								 M4803.01,456.37h-11.37v-9.1h11.37V456.37z M4780.27,456.37h-11.37v-9.1h11.37V456.37z M4757.54,456.37h-11.37v-9.1h11.37
								V456.37z M4734.8,456.37h-11.37v-9.1h11.37V456.37z M4712.06,456.37h-11.37v-9.1h11.37V456.37z M4689.32,456.37h-11.37v-9.1
								h11.37V456.37z M4666.59,456.37h-11.37v-9.1h11.37V456.37z M4643.85,456.37h-11.37v-9.1h11.37V456.37z M4621.11,456.37
								h-11.37v-9.1h11.37V456.37z M4598.37,456.37H4587v-9.1h11.37V456.37z M4575.63,456.37h-11.37v-9.1h11.37V456.37z
								 M4552.9,456.37h-11.37v-9.1h11.37V456.37z M4530.16,456.37h-11.37v-9.1h11.37V456.37z M4507.42,456.37h-11.37v-9.1h11.37
								V456.37z M4484.68,456.37h-11.37v-9.1h11.37V456.37z M4461.94,456.37h-11.37v-9.1h11.37V456.37z M4439.21,456.37h-11.37v-9.1
								h11.37V456.37z M4416.47,456.37h-11.37v-9.1h11.37V456.37z M4393.73,456.37h-11.37v-9.1h11.37V456.37z M4370.99,456.37
								h-11.37v-9.1h11.37V456.37z M4348.25,456.37h-11.37v-9.1h11.37V456.37z M4325.52,456.37h-11.37v-9.1h11.37V456.37z
								 M4302.78,456.37h-11.37v-9.1h11.37V456.37z M4280.04,456.37h-11.37v-9.1h11.37V456.37z M4257.3,456.37h-11.37v-9.1h11.37
								V456.37z M4234.57,456.37h-11.37v-9.1h11.37V456.37z M4211.83,456.37h-11.37v-9.1h11.37V456.37z M4189.09,456.37h-11.37v-9.1
								h11.37V456.37z M4166.35,456.37h-11.37v-9.1h11.37V456.37z M4143.61,456.37h-11.37v-9.1h11.37V456.37z M4120.88,456.37
								h-11.37v-9.1h11.37V456.37z M4098.14,456.37h-11.37v-9.1h11.37V456.37z M4075.4,456.37h-11.37v-9.1h11.37V456.37z
								 M4052.66,456.37h-11.37v-9.1h11.37V456.37z M4029.93,456.37h-11.37v-9.1h11.37V456.37z M4007.19,456.37h-11.37v-9.1h11.37
								V456.37z M3984.45,456.37h-11.37v-9.1h11.37V456.37z M3961.71,456.37h-11.37v-9.1h11.37V456.37z M3938.97,456.37h-11.37v-9.1
								h11.37V456.37z M3916.24,456.37h-11.37v-9.1h11.37V456.37z M3893.5,456.37h-11.37v-9.1h11.37V456.37z M3870.76,456.37h-11.37
								v-9.1h11.37V456.37z M3848.02,456.37h-11.37v-9.1h11.37V456.37z M3825.29,456.37h-11.37v-9.1h11.37V456.37z M3802.55,456.37
								h-11.37v-9.1h11.37V456.37z M3779.81,456.37h-11.37v-9.1h11.37V456.37z M3757.07,456.37h-11.37v-9.1h11.37V456.37z
								 M3734.33,456.37h-11.37v-9.1h11.37V456.37z M3711.6,456.37h-11.37v-9.1h11.37V456.37z M3688.86,456.37h-11.37v-9.1h11.37
								V456.37z M3666.12,456.37h-11.37v-9.1h11.37V456.37z M3643.38,456.37h-11.37v-9.1h11.37V456.37z M3620.65,456.37h-11.37v-9.1
								h11.37V456.37z M3597.91,456.37h-11.37v-9.1h11.37V456.37z M3575.17,456.37h-11.37v-9.1h11.37V456.37z M3552.43,456.37
								h-11.37v-9.1h11.37V456.37z M3529.69,456.37h-11.37v-9.1h11.37V456.37z M3506.96,456.37h-11.37v-9.1h11.37V456.37z
								 M3484.22,456.37h-11.37v-9.1h11.37V456.37z M3461.48,456.37h-11.37v-9.1h11.37V456.37z M3438.74,456.37h-11.37v-9.1h11.37
								V456.37z M3416.01,456.37h-11.37v-9.1h11.37V456.37z M3393.27,456.37h-11.37v-9.1h11.37V456.37z M3370.53,456.37h-11.37v-9.1
								h11.37V456.37z M3347.79,456.37h-11.37v-9.1h11.37V456.37z M3325.05,456.37h-11.37v-9.1h11.37V456.37z M3302.32,456.37
								h-11.37v-9.1h11.37V456.37z M3279.58,456.37h-11.37v-9.1h11.37V456.37z M3256.84,456.37h-11.37v-9.1h11.37V456.37z
								 M3234.1,456.37h-11.37v-9.1h11.37V456.37z M3211.36,456.37H3200v-9.1h11.37V456.37z M3188.63,456.37h-11.37v-9.1h11.37
								V456.37z M3165.89,456.37h-11.37v-9.1h11.37V456.37z M3143.15,456.37h-11.37v-9.1h11.37V456.37z M3120.41,456.37h-11.37v-9.1
								h11.37V456.37z M3097.68,456.37h-11.37v-9.1h11.37V456.37z M3074.94,456.37h-11.37v-9.1h11.37V456.37z M3052.2,456.37h-11.37
								v-9.1h11.37V456.37z M3029.46,456.37h-11.37v-9.1h11.37V456.37z M3006.72,456.37h-11.37v-9.1h11.37V456.37z M2983.99,456.37
								h-11.37v-9.1h11.37V456.37z M2961.25,456.37h-11.37v-9.1h11.37V456.37z M2938.51,456.37h-11.37v-9.1h11.37V456.37z
								 M2915.77,456.37h-11.37v-9.1h11.37V456.37z M2893.04,456.37h-11.37v-9.1h11.37V456.37z M2870.3,456.37h-11.37v-9.1h11.37
								V456.37z M2847.56,456.37h-11.37v-9.1h11.37V456.37z M2824.82,456.37h-11.37v-9.1h11.37V456.37z M2802.08,456.37h-11.37v-9.1
								h11.37V456.37z M2779.35,456.37h-11.37v-9.1h11.37V456.37z M2756.61,456.37h-11.37v-9.1h11.37V456.37z M2733.87,456.37
								h-11.37v-9.1h11.37V456.37z M2711.13,456.37h-11.37v-9.1h11.37V456.37z M2688.4,456.37h-11.37v-9.1h11.37V456.37z
								 M2665.66,456.37h-11.37v-9.1h11.37V456.37z M2642.92,456.37h-11.37v-9.1h11.37V456.37z M2620.18,456.37h-11.37v-9.1h11.37
								V456.37z M2597.44,456.37h-11.37v-9.1h11.37V456.37z M2574.71,456.37h-11.37v-9.1h11.37V456.37z M2551.97,456.37h-11.37v-9.1
								h11.37V456.37z M2529.23,456.37h-11.37v-9.1h11.37V456.37z M2506.49,456.37h-11.37v-9.1h11.37V456.37z M2483.76,456.37
								h-11.37v-9.1h11.37V456.37z M2461.02,456.37h-11.37v-9.1h11.37V456.37z M2438.28,456.37h-11.37v-9.1h11.37V456.37z
								 M2415.54,456.37h-11.37v-9.1h11.37V456.37z M2392.8,456.37h-11.37v-9.1h11.37V456.37z M2370.07,456.37h-11.37v-9.1h11.37
								V456.37z M2347.33,456.37h-11.37v-9.1h11.37V456.37z"/>
							<rect x="4928.07" y="447.27" class="st3" width="5.68" height="9.1"/>
						</g>
						<path class="st3" d="M4950.94,451.25H2312.09c-4.71,0-8.53-3.82-8.53-8.53c0-4.71,3.82-8.53,8.53-8.53h2638.85
							c4.71,0,8.53,3.82,8.53,8.53C4959.47,447.43,4955.65,451.25,4950.94,451.25z"/>
					</g>
					<g id="Arm_03_28_">
						<g>
							<rect x="3504.59" y="444.09" class="st3" width="332.31" height="74.18"/>
							<path class="st3" d="M3638.06,1053.69c-27.7-16.01-44.86-47.7-41.72-77.08c2.94-27.44,22.23-48.23,54.34-58.54
								c38.2-12.27,40.34-43.72,39.48-56.67c-1.76-26.66-18.97-51.2-38.35-54.7l0.94-5.21c22,3.98,40.76,30.14,42.7,59.57
								c0.89,13.5-2.03,26.11-8.46,36.48c-7.42,11.97-19.09,20.58-34.69,25.59c-29.99,9.63-47.99,28.83-50.69,54.06
								c-2.93,27.36,13.15,56.94,39.1,71.93L3638.06,1053.69z"/>
							<path class="st3" d="M3700.45,774.38l1.77-14.89c6.45,0.77,30.06-4.19,50.2-21.01c17.75-14.82,27.47-34.11,28.9-57.34
								c1.37-22.22-4.31-40.5-16.86-54.32c-24.89-27.41-69.07-29.26-69.52-29.27l0.49-14.98c2.06,0.07,50.83,2,80.05,34.1
								c15.42,16.94,22.42,38.94,20.79,65.4c-1.67,27.12-13.51,50.61-34.25,67.93C3739.36,768.92,3711.88,775.73,3700.45,774.38z"/>
							<g>
								<path class="st3" d="M3753.09,559.66h-163.96c-25.14,0-45.51-20.38-45.51-45.51v0c0-25.14,20.38-45.51,45.51-45.51h163.96
									c25.14,0,45.51,20.38,45.51,45.51v0C3798.6,539.28,3778.22,559.66,3753.09,559.66z"/>
								<rect x="3645.36" y="612.45" class="st3" width="47.31" height="162.86"/>
								
									<rect x="3575.24" y="921.89" transform="matrix(0.6426 -0.7662 0.7662 0.6426 524.6588 3104.8823)" class="st3" width="30.54" height="136.33"/>
								<path class="st3" d="M3621.75,508.17v113.61c0,26.1,21.16,47.27,47.27,47.27l0,0c26.1,0,47.27-21.16,47.27-47.27V508.17
									H3621.75z"/>
								<g>
									<path class="st3" d="M3658.15,596.21c-13.97,6.03-20.43,22.31-14.4,36.28c6.03,13.97,22.31,20.43,36.28,14.4
										c13.97-6.03,20.43-22.31,14.4-36.28C3688.39,596.63,3672.12,590.17,3658.15,596.21z"/>
								</g>
								<g>
									<g>
										<path class="st3" d="M3580.04,491.75c-11.84,4.96-17.43,18.63-12.47,30.46c4.96,11.84,18.63,17.43,30.46,12.47
											c11.84-4.96,17.43-18.63,12.47-30.46C3605.55,492.38,3591.88,486.79,3580.04,491.75z"/>
									</g>
									<g>
										<path class="st3" d="M3743.86,492.99c-11.78,5.09-17.23,18.81-12.14,30.59c5.09,11.78,18.81,17.23,30.59,12.14
											c11.78-5.09,17.23-18.81,12.14-30.59C3769.36,493.35,3755.64,487.9,3743.86,492.99z"/>
									</g>
								</g>
								<g>
									<path class="st3" d="M3484.07,891.39l128.55-169.86c19.71-26.04,56.79-31.17,82.83-11.47l0,0
										c26.04,19.71,31.17,56.79,11.47,82.83l-128.55,169.86c-19.71,26.04-56.79,31.17-82.83,11.47h0
										C3469.5,954.51,3464.37,917.43,3484.07,891.39z"/>
									<g>
										<g>
											<path class="st3" d="M3690.1,765.37c4.14-16.15-5.63-32.66-21.79-36.8c-16.15-4.14-32.66,5.63-36.8,21.78
												c-4.14,16.15,5.63,32.66,21.78,36.8C3669.45,791.29,3685.96,781.52,3690.1,765.37z"/>
										</g>
										<g>
											<path class="st3" d="M3560.38,934.1c3.97-16.2-5.98-32.6-22.17-36.57c-16.2-3.97-32.6,5.98-36.57,22.17
												c-3.97,16.2,5.98,32.6,22.17,36.57C3540.01,960.24,3556.41,950.29,3560.38,934.1z"/>
										</g>
									</g>
								</g>
								<g>
									<path class="st3" d="M3635.47,984.81l88.38,73.54c13.55,11.27,15.39,31.4,4.12,44.95v0c-11.27,13.55-31.4,15.39-44.95,4.12
										l-88.38-73.54c-13.55-11.27-15.39-31.4-4.12-44.95h0C3601.8,975.38,3621.92,973.54,3635.47,984.81z"/>
									<g>
										<g>
											<path class="st3" d="M3699.22,1095.97c6.92,2.12,14.27-1.79,16.39-8.71c2.12-6.92-1.79-14.27-8.71-16.39
												c-6.92-2.12-14.27,1.79-16.39,8.71C3688.4,1086.5,3692.3,1093.85,3699.22,1095.97z"/>
										</g>
									</g>
									<g>
										<g>
											<path class="st3" d="M3609.97,1019.82c6.92,2.12,14.27-1.79,16.39-8.71c2.12-6.92-1.79-14.27-8.71-16.39
												c-6.92-2.12-14.27,1.79-16.39,8.71C3599.14,1010.35,3603.05,1017.7,3609.97,1019.82z"/>
										</g>
									</g>
								</g>
							</g>
							<g>
								<g>
									
										<rect x="3685.64" y="1075.27" transform="matrix(0.9998 -0.0182 0.0182 0.9998 -19.8438 67.521)" class="st3" width="32.98" height="98.86"/>
								</g>
								<g>
									<g>
										
											<rect x="3685.71" y="1226.93" transform="matrix(1 -7.340923e-03 7.340923e-03 1 -8.9573 27.2094)" class="st3" width="32.6" height="13.69"/>
										
											<rect x="3692.29" y="1234.79" transform="matrix(1 -7.337997e-03 7.337997e-03 1 -9.0363 27.1995)" class="st3" width="19.6" height="20.46"/>
										
											<rect x="3685.71" y="1226.93" transform="matrix(1 -7.340923e-03 7.340923e-03 1 -8.9573 27.2094)" class="st3" width="32.6" height="13.69"/>
										<g>
											<path class="st3" d="M3719.26,1259.63l0.02,0l-0.02-0.01l0-0.01l-0.02,0l-2.44-2.33c-3.7-3.54-8.64-5.5-13.76-5.46l0,0
												c-5.12,0.04-10.03,2.07-13.68,5.67l-2.4,2.37l-0.02,0v0.01l-0.02,0.01l0.02,0l0.12,16.2h-0.01l2.49,2.35
												c3.69,3.47,8.58,5.39,13.64,5.36l0.17,0c5.07-0.04,9.93-2.03,13.56-5.56l2.46-2.39l-0.01,0L3719.26,1259.63z"/>
											
												<rect x="3693.93" y="1273.55" transform="matrix(1 -7.341938e-03 7.341938e-03 1 -9.2985 27.2236)" class="st3" width="18.65" height="13.09"/>
										</g>
										<polygon class="st3" points="3699.33,1264.39 3699.74,1320.3 3703.45,1323.89 3707.33,1320.24 3706.92,1264.33 										
											"/>
									</g>
									<g>
										<g>
											<polygon class="st3" points="3721.69,1233.57 3682.33,1233.86 3661.98,1212.02 3741.72,1211.44 											"/>
										</g>
									</g>
									<g>
										<g>
											<polygon class="st3" points="3680.27,1149.35 3722.51,1149.04 3744.28,1163.81 3658.71,1164.44 											"/>
										</g>
									</g>
									
										<rect x="3656.28" y="1161.1" transform="matrix(1 -7.341621e-03 7.341621e-03 1 -8.6152 27.2082)" class="st3" width="90.77" height="51.93"/>
								</g>
							</g>
						</g>
					</g>
				</g>
			</g>
		</g>
		<g class="st1">
			<polygon class="st5" points="144.19,1387.73 -150.86,1533.95 77.44,1533.95 342.32,1387.73 			"/>
			<polygon class="st5" points="360.54,1387.73 98.43,1533.95 326.72,1533.95 558.67,1387.73 			"/>
			<polygon class="st5" points="576.89,1387.73 347.71,1533.95 576.01,1533.95 775.02,1387.73 			"/>
			<polygon class="st5" points="793.24,1387.73 597,1533.95 825.29,1533.95 991.37,1387.73 			"/>
			<polygon class="st5" points="1009.59,1387.73 846.29,1533.95 1074.58,1533.95 1207.72,1387.73 			"/>
			<polygon class="st5" points="1225.93,1387.73 1095.57,1533.95 1323.86,1533.95 1424.06,1387.73 			"/>
			<polygon class="st5" points="1442.28,1387.73 1344.86,1533.95 1573.15,1533.95 1640.41,1387.73 			"/>
			<polygon class="st5" points="1658.63,1387.73 1594.14,1533.95 1822.44,1533.95 1856.76,1387.73 			"/>
			<polygon class="st5" points="1874.98,1387.73 1843.43,1533.95 2071.72,1533.95 2073.11,1387.73 			"/>
			<polygon class="st5" points="2091.33,1387.73 2092.71,1533.95 2321.01,1533.95 2289.46,1387.73 			"/>
			<polygon class="st5" points="2307.68,1387.73 2342,1533.95 2570.29,1533.95 2505.81,1387.73 			"/>
			<polygon class="st5" points="2524.02,1387.73 2591.29,1533.95 2819.58,1533.95 2722.15,1387.73 			"/>
			<polygon class="st5" points="2740.37,1387.73 2840.57,1533.95 3068.86,1533.95 2938.5,1387.73 			"/>
			<polygon class="st5" points="2956.72,1387.73 3089.86,1533.95 3318.15,1533.95 3154.85,1387.73 			"/>
			<polygon class="st5" points="3173.07,1387.73 3339.14,1533.95 3567.44,1533.95 3371.2,1387.73 			"/>
			<polygon class="st5" points="3389.42,1387.73 3588.43,1533.95 3816.72,1533.95 3587.55,1387.73 			"/>
			<polygon class="st5" points="3605.77,1387.73 3837.71,1533.95 4066.01,1533.95 3803.9,1387.73 			"/>
			<polygon class="st5" points="3822.11,1387.73 4087,1533.95 4315.29,1533.95 4020.24,1387.73 			"/>
		</g>
		<g class="st1">
			<polygon class="st6" points="-682.14,1689.11 -1105.04,1898.7 -777.83,1898.7 -398.16,1689.11 			"/>
			<polygon class="st6" points="-372.05,1689.11 -747.74,1898.7 -420.53,1898.7 -88.07,1689.11 			"/>
			<polygon class="st6" points="-61.96,1689.11 -390.44,1898.7 -63.22,1898.7 222.02,1689.11 			"/>
			<polygon class="st6" points="248.14,1689.11 -33.13,1898.7 294.08,1898.7 532.12,1689.11 			"/>
			<polygon class="st6" points="558.23,1689.11 324.17,1898.7 651.38,1898.7 842.21,1689.11 			"/>
			<polygon class="st6" points="868.32,1689.11 681.47,1898.7 1008.69,1898.7 1152.3,1689.11 			"/>
			<polygon class="st6" points="1178.42,1689.11 1038.77,1898.7 1365.99,1898.7 1462.4,1689.11 			"/>
			<polygon class="st6" points="1488.51,1689.11 1396.08,1898.7 1723.29,1898.7 1772.49,1689.11 			"/>
			<polygon class="st6" points="1798.6,1689.11 1753.38,1898.7 2080.59,1898.7 2082.58,1689.11 			"/>
			<polygon class="st6" points="2108.7,1689.11 2110.68,1898.7 2437.9,1898.7 2392.67,1689.11 			"/>
			<polygon class="st6" points="2418.79,1689.11 2467.99,1898.7 2795.2,1898.7 2702.77,1689.11 			"/>
			<polygon class="st6" points="2728.88,1689.11 2825.29,1898.7 3152.5,1898.7 3012.86,1689.11 			"/>
			<polygon class="st6" points="3038.97,1689.11 3182.59,1898.7 3509.8,1898.7 3322.96,1689.11 			"/>
			<polygon class="st6" points="3349.07,1689.11 3539.89,1898.7 3867.11,1898.7 3633.05,1689.11 			"/>
			<polygon class="st6" points="3659.16,1689.11 3897.2,1898.7 4224.41,1898.7 3943.14,1689.11 			"/>
			<polygon class="st6" points="3969.25,1689.11 4254.5,1898.7 4581.71,1898.7 4253.23,1689.11 			"/>
			<polygon class="st6" points="4279.35,1689.11 4611.8,1898.7 4939.02,1898.7 4563.33,1689.11 			"/>
			<polygon class="st6" points="4589.44,1689.11 4969.1,1898.7 5296.32,1898.7 4873.42,1689.11 			"/>
		</g>
	</g>
</g>
<g id="board">
	<g>
		<g>
			<polygon class="st7" points="2967.99,1299.74 943.91,1315.8 939.11,819.07 2963.2,803.02 			"/>
			<polygon class="st8" points="2967.96,1287.76 943.87,1303.81 939.11,811.92 2963.2,795.87 			"/>
			<polygon class="st9" points="986.87,1274.98 982.64,850.35 984.38,850.34 2395.01,841.04 2395.04,844.5 986.14,853.79 
				990.3,1271.49 1475.93,1267.64 1475.96,1271.1 			"/>
			<polygon class="st9" points="1751.92,1268.91 1751.9,1265.45 2920.97,1256.18 2916.81,838.47 2549.97,841.38 2549.94,837.93 
				2920.23,834.99 2920.25,836.71 2924.46,1259.61 			"/>
		</g>
		<g>
			<polygon class="st10" points="933.8,904 989.45,903.56 989.08,857.23 1038,856.84 1037.61,806.98 933.48,807.81 			"/>
			<path class="st8" d="M967.75,886.52c0.03,3.23-2.57,5.87-5.8,5.89c-3.23,0.03-5.87-2.57-5.89-5.8c-0.03-3.23,2.57-5.87,5.8-5.89
				C965.08,880.69,967.72,883.29,967.75,886.52z"/>
			<path class="st8" d="M1025.12,831.64c0.03,3.23-2.57,5.87-5.8,5.89c-3.23,0.03-5.87-2.57-5.89-5.8c-0.03-3.23,2.57-5.87,5.8-5.89
				C1022.45,825.82,1025.09,828.41,1025.12,831.64z"/>
		</g>
		<g>
			<polygon class="st10" points="2871.35,796.85 2871.79,852.5 2911.78,852.18 2912.11,894.04 2968.31,893.6 2967.54,796.53 			"/>
			<path class="st8" d="M2888.83,830.8c-3.23,0.03-5.87-2.57-5.89-5.8c-0.03-3.23,2.57-5.87,5.8-5.89c3.23-0.03,5.87,2.57,5.89,5.8
				C2894.65,828.13,2892.06,830.77,2888.83,830.8z"/>
			<circle class="st8" cx="2939.74" cy="873.31" r="5.85"/>
		</g>
		<g>
			<polygon class="st10" points="937.2,1224.64 992.85,1224.2 993.21,1270.52 1042.14,1270.14 1042.53,1320 938.4,1320.82 			"/>
			
				<ellipse transform="matrix(0.7071 -0.7071 0.7071 0.7071 -595.1492 1046.4241)" class="st8" cx="965.57" cy="1241.62" rx="5.85" ry="5.85"/>
			<path class="st8" d="M1029.65,1295.53c-0.03-3.23-2.66-5.83-5.89-5.8c-3.23,0.03-5.83,2.66-5.8,5.89
				c0.03,3.23,2.66,5.83,5.89,5.8C1027.08,1301.4,1029.68,1298.76,1029.65,1295.53z"/>
		</g>
		<g>
			<polygon class="st10" points="2876.2,1301.04 2875.76,1245.39 2915.75,1245.07 2915.42,1203.21 2971.62,1202.76 2972.39,1299.84 
							"/>
			<path class="st8" d="M2893.14,1266.82c-3.23,0.03-5.83,2.66-5.8,5.89s2.66,5.83,5.89,5.8c3.23-0.03,5.83-2.66,5.8-5.89
				C2899.01,1269.39,2896.37,1266.79,2893.14,1266.82z"/>
			<path class="st8" d="M2943.33,1217.66c-3.23,0.03-5.83,2.66-5.8,5.89s2.66,5.83,5.89,5.8s5.83-2.66,5.8-5.89
				C2949.2,1220.23,2946.56,1217.63,2943.33,1217.66z"/>
		</g>
	</g>
</g>
<g id="text">
	<g>
		<path class="st9" d="M1246.88,1115.36l-33.78,102.3h-43.43l110.5-325.22h50.67l110.98,325.22h-44.88l-34.74-102.3H1246.88z
			 M1353.52,1082.55l-31.85-93.61c-7.24-21.23-12.06-40.53-16.89-59.35h-0.97c-4.83,19.3-10.13,39.08-16.41,58.87l-31.85,94.09
			H1353.52z"/>
		<path class="st9" d="M1488.14,1056.98c0-27.5-0.48-51.15-1.93-72.86h37.15l1.45,45.84h1.93c10.62-31.36,36.19-51.15,64.66-51.15
			c4.83,0,8.2,0.48,12.06,1.45v40.05c-4.34-0.96-8.69-1.45-14.48-1.45c-29.92,0-51.15,22.68-56.94,54.53
			c-0.97,5.79-1.93,12.55-1.93,19.78v124.49h-41.98V1056.98z"/>
		<path class="st9" d="M1847.62,875.06v282.28c0,20.75,0.48,44.39,1.93,60.32h-38.12l-1.93-40.53h-0.96
			c-13.03,26.06-41.5,45.84-79.62,45.84c-56.46,0-99.88-47.77-99.88-118.7c-0.48-77.69,47.77-125.46,104.71-125.46
			c35.71,0,59.83,16.89,70.45,35.71h0.96V875.06H1847.62z M1805.16,1079.17c0-5.31-0.48-12.55-1.93-17.85
			c-6.27-27.02-29.43-49.22-61.28-49.22c-43.91,0-69.97,38.6-69.97,90.23c0,47.29,23.16,86.37,69,86.37
			c28.47,0,54.53-18.82,62.25-50.67c1.45-5.79,1.93-11.58,1.93-18.34V1079.17z"/>
		<path class="st9" d="M2113.49,1153.97c0,24.13,0.48,45.36,1.93,63.69h-37.64l-2.41-38.12h-0.97
			c-11.1,18.82-35.71,43.43-77.2,43.43c-36.67,0-80.58-20.27-80.58-102.3V984.12h42.46v129.32c0,44.39,13.51,74.31,52.11,74.31
			c28.47,0,48.25-19.78,55.97-38.6c2.41-6.27,3.86-13.99,3.86-21.71V984.12h42.46V1153.97z"/>
		<path class="st9" d="M2231.22,918.49c0.48,14.48-10.13,26.06-27.02,26.06c-14.96,0-25.57-11.58-25.57-26.06
			c0-14.96,11.1-26.54,26.54-26.54C2221.09,891.95,2231.22,903.53,2231.22,918.49z M2183.93,1217.66V984.12h42.46v233.54H2183.93z"
			/>
		<path class="st9" d="M2296.84,1047.33c0-24.13-0.48-43.91-1.93-63.21h37.64l2.41,38.6h0.96c11.58-22.2,38.6-43.91,77.2-43.91
			c32.33,0,82.51,19.3,82.51,99.4v139.45h-42.46v-134.63c0-37.64-13.99-69-54.04-69c-27.99,0-49.7,19.78-56.94,43.43
			c-1.93,5.31-2.89,12.55-2.89,19.78v140.42h-42.46V1047.33z"/>
		<path class="st9" d="M2775.98,1098.96c0,86.37-59.83,124.01-116.29,124.01c-63.21,0-111.95-46.32-111.95-120.15
			c0-78.17,51.15-124.01,115.81-124.01C2730.63,978.81,2775.98,1027.54,2775.98,1098.96z M2590.69,1101.37
			c0,51.15,29.43,89.75,70.93,89.75c40.53,0,70.93-38.12,70.93-90.72c0-39.57-19.78-89.75-69.97-89.75
			C2612.41,1010.65,2590.69,1056.98,2590.69,1101.37z"/>
	</g>
</g>
<g id="robots_1_">
	<g>
		<defs>
			<rect id="SVGID_3_" width="4000" height="2000"/>
		</defs>
		<clipPath id="SVGID_4_">
			<use xlink:href="#SVGID_3_"  style="overflow:visible;"/>
		</clipPath>
		<g class="st11">
			<g>
				<path class="st12" d="M1149.58,269.99c0.5,2.76,12.77,68.5,49.56,140.13c21.76,42.37,47.63,77.92,76.88,105.68
					c37.01,35.11,79.49,57.75,126.26,67.27c66.55,13.55,128.46,10.27,184.01-9.75c44.52-16.04,84.91-42.77,120.06-79.42
					c59.46-62.01,83.06-130.37,84.04-133.25l-23.6-8.01c0,0,0,0.01,0,0.01l0,0c-0.4,1.16-23.34,66.86-79.04,124.64
					c-74.04,76.81-168.41,104.18-280.49,81.37c-76.93-15.66-139.49-69.46-185.94-159.91c-35.12-68.38-47.09-132.57-47.21-133.21
					L1149.58,269.99z"/>
				<g>
					
						<ellipse transform="matrix(0.0335 -0.9994 0.9994 0.0335 1860.609 684.3369)" class="st12" cx="1284.15" cy="-619.88" rx="77.49" ry="358.6"/>
					
						<rect x="923.25" y="-619.91" transform="matrix(0.9994 0.0335 -0.0335 0.9994 -17.7717 -43.2977)" class="st12" width="717.2" height="136.95"/>
					
						<ellipse transform="matrix(0.0335 -0.9994 0.9994 0.0335 1719.3716 812.0324)" class="st13" cx="1279.55" cy="-483" rx="77.49" ry="358.6"/>
				</g>
				<g>
					
						<ellipse transform="matrix(0.0335 -0.9994 0.9994 0.0335 1800.9668 932.955)" class="st12" cx="1382.88" cy="-464.73" rx="35.93" ry="188.74"/>
					<g>
						<circle class="st14" cx="1377.61" cy="-289.55" r="174.64"/>
						<path class="st15" d="M1408.41,255.33c0,0-9.54-300.71,131.7-472.68C1351.3-441.61,1210.8-350.12,1210.8-350.12
							s-197.67,215.23-148.83,632.11C1087.5,499.94,1407.35,345.61,1408.41,255.33z"/>
					</g>
					<g>
						<g>
							<path class="st12" d="M1571.86-457.95l-377.34-12.66l-5.43,161.88c-3.5,104.2,78.14,191.5,182.34,195h0
								c104.2,3.5,191.5-78.14,195-182.34L1571.86-457.95z"/>
							<path class="st14" d="M1442.72-241.18c32.25-34.76,30.22-89.09-4.55-121.34c-34.76-32.25-89.09-30.21-121.34,4.56
								c-32.25,34.76-30.22,89.09,4.55,121.34C1356.15-204.38,1410.47-206.42,1442.72-241.18z M1417.42-264.66
								c-19.29,20.79-51.77,22.01-72.56,2.72c-20.79-19.28-22-51.77-2.72-72.56c19.29-20.79,51.77-22.01,72.56-2.73
								C1435.49-317.93,1436.71-285.45,1417.42-264.66z"/>
						</g>
					</g>
				</g>
			</g>
			<g>
				<g>
					
						<rect x="1979.67" y="286.62" transform="matrix(0.9548 -0.2971 0.2971 0.9548 -23.2786 615.2695)" class="st12" width="65.11" height="195.18"/>
					<g>
						<g>
							
								<rect x="2047.99" y="575.05" transform="matrix(-0.9516 0.3075 -0.3075 -0.9516 4240.5283 508.9958)" class="st12" width="64.36" height="27.03"/>
							
								<rect x="2067.64" y="589.48" transform="matrix(-0.9516 0.3075 -0.3075 -0.9516 4260.3354 548.1074)" class="st12" width="38.69" height="40.4"/>
							
								<rect x="2047.99" y="575.05" transform="matrix(-0.9516 0.3075 -0.3075 -0.9516 4240.5283 508.9958)" class="st12" width="64.36" height="27.03"/>
							<g>
								<path class="st12" d="M2063.88,647.71l-0.05,0.01l0.04-0.04l-0.01-0.02l0.03-0.01l3.12-5.89
									c4.74-8.94,12.77-15.67,22.39-18.78l0,0c9.62-3.11,20.08-2.35,29.15,2.13l5.98,2.95l0.03-0.01l0.01,0.02l0.05,0.01
									l-0.05,0.01l9.83,30.44l0.02-0.01l-3.22,5.95c-4.76,8.8-12.72,15.43-22.25,18.51l-0.32,0.1
									c-9.52,3.08-19.86,2.36-28.87-1.99l-6.09-2.94l0.02-0.01L2063.88,647.71z"/>
								
									<rect x="2088.17" y="663.2" transform="matrix(-0.9516 0.3075 -0.3075 -0.9516 4318.9995 671.7519)" class="st12" width="36.81" height="25.83"/>
							</g>
							<polygon class="st12" points="2104.2,644.26 2138.14,749.3 2133.41,758.32 2123.87,753.91 2089.93,648.87 							"/>
						</g>
						<g>
							<g>
								<polygon class="st15" points="2043.15,600.38 2117.1,576.49 2141.68,522.94 1991.88,571.34 								"/>
							</g>
						</g>
						<g>
							<g>
								<polygon class="st15" points="2068.5,416.83 1989.14,442.47 1957.51,483.68 2118.26,431.73 								"/>
							</g>
						</g>
						
							<rect x="1962.21" y="449.54" transform="matrix(-0.9516 0.3075 -0.3075 -0.9516 4158.2012 346.4488)" class="st12" width="179.2" height="102.52"/>
					</g>
				</g>
				<g>
					
						<rect x="1420.47" y="243.03" transform="matrix(-2.344592e-03 -1 1 -2.344592e-03 1273.9515 1806.0505)" class="st12" width="234.84" height="49.02"/>
					<path class="st12" d="M1156.76,268.81L1156.76,268.81c0.15,35.35,28.93,63.88,64.28,63.73l391.7-1.54l-0.55-128.01l-391.7,1.54
						C1185.14,204.68,1156.6,233.46,1156.76,268.81z"/>
					<g>
						<path class="st15" d="M1532.77,132.89l442.53,27.24c56.87,3.5,101.2,50.64,101.2,107.62l0,0
							c0,56.98-44.33,104.12-101.2,107.62l-441.89,26.85L1532.77,132.89z"/>
						<path class="st12" d="M2037.38,267.75c0,38.14-31.03,69.18-69.18,69.18c-38.14,0-69.18-31.03-69.18-69.18
							c0-38.14,31.03-69.18,69.18-69.18S2037.38,229.6,2037.38,267.75z M2008.26,267.75c0-22.09-17.97-40.06-40.06-40.06
							c-22.09,0-40.06,17.97-40.06,40.05c0,22.09,17.97,40.06,40.05,40.06C1990.29,307.8,2008.26,289.83,2008.26,267.75z"/>
					</g>
					
						<ellipse transform="matrix(0.7071 -0.7071 0.7071 0.7071 173.3883 948.8434)" class="st15" cx="1232.05" cy="265.12" rx="174.64" ry="174.64"/>
					<path class="st12" d="M1332.82,230.72c-21.64-56.4-84.91-84.59-141.32-62.94c-56.4,21.64-84.58,84.91-62.94,141.31
						c21.64,56.4,84.9,84.59,141.31,62.95C1326.28,350.39,1354.46,287.12,1332.82,230.72z M1291.76,246.47
						c12.94,33.73-3.91,71.57-37.64,84.51c-33.72,12.94-71.56-3.91-84.5-37.64c-12.94-33.73,3.91-71.57,37.63-84.51
						C1240.99,195.89,1278.82,212.74,1291.76,246.47z"/>
				</g>
			</g>
			<g>
				<g>
					
						<rect x="1446.46" y="1907.88" transform="matrix(0.6529 -0.7575 0.7575 0.6529 -933.8321 1843.1382)" class="st12" width="195.18" height="65.11"/>
					<g>
						<g>
							
								<rect x="1649.3" y="1761.12" transform="matrix(0.7645 0.6446 -0.6446 0.7645 1539.9504 -665.9955)" class="st12" width="64.36" height="27.03"/>
							
								<rect x="1676.44" y="1737.47" transform="matrix(0.7645 0.6446 -0.6446 0.7645 1532.3767 -679.2102)" class="st12" width="38.69" height="40.4"/>
							
								<rect x="1649.3" y="1761.12" transform="matrix(0.7645 0.6446 -0.6446 0.7645 1539.9504 -665.9955)" class="st12" width="64.36" height="27.03"/>
							<g>
								<path class="st12" d="M1740.29,1757.15l0.04,0.03l-0.05-0.01l-0.01,0.01l-0.02-0.02l-6.65,0.47
									c-10.09,0.71-20.06-2.54-27.79-9.06l0,0c-7.73-6.52-12.62-15.8-13.62-25.86l-0.66-6.63l-0.02-0.02l0.01-0.01l-0.02-0.05
									l0.04,0.03l20.62-24.45l-0.01-0.01l6.75-0.42c9.99-0.62,19.83,2.63,27.48,9.08l0.25,0.21c7.65,6.45,12.52,15.6,13.59,25.55
									l0.73,6.72l-0.01-0.01L1740.29,1757.15z"/>
								
									<rect x="1723.39" y="1692.96" transform="matrix(0.7645 0.6446 -0.6446 0.7645 1509.8354 -721.0651)" class="st12" width="36.81" height="25.83"/>
							</g>
							<polygon class="st12" points="1716.02,1724.76 1787.18,1640.37 1797.34,1639.61 1798.64,1650.04 1727.49,1734.43 							"/>
						</g>
						<g>
							<g>
								<polygon class="st15" points="1711.1,1799.78 1651.69,1749.68 1593.24,1757.17 1713.59,1858.65 								"/>
							</g>
						</g>
						<g>
							<g>
								<polygon class="st15" points="1541.95,1875.42 1605.71,1929.19 1657.41,1934.21 1528.26,1825.31 								"/>
							</g>
						</g>
						
							<rect x="1532.43" y="1793.88" transform="matrix(0.7645 0.6446 -0.6446 0.7645 1571.399 -611.0668)" class="st12" width="179.2" height="102.52"/>
					</g>
				</g>
				<g>
					
						<rect x="1578.69" y="2380.13" transform="matrix(-0.8472 0.5312 -0.5312 -0.8472 4410.5391 3540.8403)" class="st12" width="234.84" height="49.02"/>
					<path class="st12" d="M1898.9,2727.34L1898.9,2727.34c29.91-18.84,38.89-58.36,20.05-88.27l-208.61-331.53l-108.32,68.22
						l208.61,331.53C1829.47,2737.2,1868.99,2746.18,1898.9,2727.34z"/>
					<g>
						<path class="st15" d="M1584.57,2480.24l-211.1-389.88c-27.13-50.1-10.59-112.67,37.75-142.82h0
							c48.34-30.16,111.81-17.49,144.87,28.91l256.66,360.72L1584.57,2480.24z"/>
						<path class="st12" d="M1431.92,1980.72c32.36-20.19,75.12-10.28,95.31,22.08c20.19,32.36,10.28,75.12-22.08,95.31
							c-32.36,20.19-75.12,10.28-95.31-22.08C1389.65,2043.67,1399.56,2000.91,1431.92,1980.72z M1447.34,2005.43
							c-18.74,11.69-24.48,36.44-12.79,55.18c11.69,18.74,36.44,24.48,55.18,12.79c18.74-11.69,24.48-36.45,12.79-55.18
							C1490.83,1999.48,1466.08,1993.74,1447.34,2005.43z"/>
					</g>
					
						<ellipse transform="matrix(0.7071 -0.7071 0.7071 0.7071 -1341.1395 2093.0181)" class="st15" cx="1855.93" cy="2665.41" rx="174.64" ry="174.64"/>
					<path class="st12" d="M1773.41,2598.12c-36.4,48.21-26.83,116.81,21.39,153.22c48.21,36.4,116.81,26.82,153.21-21.39
						c36.4-48.21,26.83-116.81-21.38-153.21C1878.4,2540.32,1809.81,2549.9,1773.41,2598.12z M1808.5,2624.61
						c21.77-28.83,62.79-34.56,91.62-12.79c28.83,21.77,34.55,62.78,12.78,91.62c-21.77,28.83-62.79,34.56-91.62,12.79
						C1792.45,2694.47,1786.73,2653.45,1808.5,2624.61z"/>
				</g>
			</g>
		</g>
		<g class="st11">
			<g>
				<g>
					
						<rect x="477.12" y="874.99" transform="matrix(-0.0125 -0.9999 0.9999 -0.0125 -532.8284 1584.6996)" class="st9" width="77.89" height="360.91"/>
					<path class="st15" d="M585.78,1007.32l1.14,91.29c13.46,16.04,33.75,26.12,56.32,25.79l66.03-1l-2.07-144.27l-66.03,1
						C618.7,980.46,598.78,991.02,585.78,1007.32z"/>
					<g>
						
							<rect x="633.15" y="1040.32" transform="matrix(-0.0125 -0.9999 0.9999 -0.0125 -323.1559 1782.1906)" class="st9" width="170.53" height="20.69"/>
					</g>
				</g>
				<g>
					<g>
						<polygon class="st9" points="1180.63,1309.96 1181.2,1350.6 873.66,1425.12 872.11,1314.28 						"/>
						<polygon class="st9" points="1179.98,811.9 1181.07,771.27 874.51,692.84 871.54,803.66 						"/>
						<path class="st15" d="M831.06,937.76l2.71,236.28c0.33,28.79-22.95,52.61-51.74,52.94h0c-28.79,0.33-52.61-22.95-52.94-51.74
							l-2.71-236.28c-0.33-28.79,22.95-52.61,51.74-52.94h0C806.91,885.69,830.73,908.98,831.06,937.76z"/>
						<g>
							<path class="st15" d="M761.07,1138.43c-22.57,9.05-33.83,34.42-25.39,57.23l70.81,191.4c15.8,44.05,67.77,62.86,108.1,39.12
								h0c38.36-22.58,48.55-73.5,21.84-109.1l-122.74-163.89C801.51,1136.93,779.93,1130.87,761.07,1138.43L761.07,1138.43z"/>
							<g>
								<g>
									<path class="st9" d="M851.24,1373.33c10.25,17.02,33.92,18.89,46.73,3.71c7.76-9.2,8.83-22.7,2.62-33.01
										c-10.25-17.02-33.92-18.89-46.73-3.71C846.1,1349.52,845.03,1363.02,851.24,1373.33z"/>
								</g>
							</g>
							<g>
								<g>
									<path class="st9" d="M761.32,1195.31c7.88,13.07,26.06,14.52,35.9,2.85c5.96-7.07,6.79-17.44,2.01-25.36
										c-7.88-13.07-26.06-14.52-35.9-2.85C757.37,1177.02,756.55,1187.39,761.32,1195.31z"/>
								</g>
							</g>
						</g>
						<g>
							<path class="st15" d="M750.65,976.31c-21.93-10.51-31.49-36.57-21.58-58.77l83.23-186.33
								c18.66-42.92,71.76-58.27,110.44-31.93l0,0c36.79,25.05,43.62,76.53,14.63,110.3L804.12,965.04
								C790.9,980.47,768.97,985.09,750.65,976.31L750.65,976.31z"/>
							<g>
								<g>
									<path class="st9" d="M772.25,954.6c15.26,0.47,26.33-14.02,21.86-28.62c-2.7-8.84-10.97-15.16-20.22-15.45
										c-15.26-0.47-26.33,14.02-21.86,28.62C754.74,948,763.01,954.32,772.25,954.6z"/>
								</g>
							</g>
							<g>
								<g>
									<path class="st9" d="M878.8,793.08c19.86,0.61,34.27-18.25,28.46-37.25c-3.52-11.51-14.28-19.73-26.31-20.1
										c-19.86-0.61-34.27,18.25-28.46,37.25C856.01,784.48,866.77,792.7,878.8,793.08z"/>
								</g>
							</g>
						</g>
					</g>
				</g>
			</g>
			<g id="Arm_02_2_">
				<g>
					<path class="st16" d="M128.11,2212.15l-7.95-6.47c69.9-85.93,98.37-157.61,87.02-219.12
						c-15.45-83.72-103.5-134.49-181.18-179.28c-43.61-25.14-84.8-48.89-108.06-75.83c-17.46-20.21-24.69-42.11-21.5-65.07
						c7.23-52.09,65.32-90.89,67.79-92.52l5.64,8.56c-0.57,0.37-56.71,37.92-63.28,85.4c-2.75,19.9,3.68,39.05,19.11,56.93
						c22.13,25.62,62.59,48.95,105.42,73.65c79.6,45.9,169.83,97.92,186.14,186.3C229.19,2049.34,200.03,2123.74,128.11,2212.15z"/>
					<path class="st16" d="M-460.12,1444.14c-1.28-2.65-31.47-65.88-38.29-144.66c-9.31-107.56,29.56-191.5,112.4-242.75
						c60.51-37.44,127.12-48.28,192.63-31.35c75.55,19.52,135.77,73.24,152.69,103.4l-35.76,20.06
						c-11.28-20.11-61.71-66.84-127.18-83.76c-55.19-14.26-109.3-5.34-160.8,26.52c-69.79,43.17-101.12,111.93-93.12,204.35
						c6.17,71.34,34.08,129.78,34.36,130.36L-460.12,1444.14z"/>
					
						<rect x="-115.63" y="1123.14" transform="matrix(0.866 -0.5 0.5 0.866 -577.2483 123.2886)" class="st16" width="114.12" height="31.33"/>
					<g>
						<path class="st15" d="M496.55,1136.3H335.49c-48.36,0-87.56-39.2-87.56-87.56v0c0-48.36,39.2-87.56,87.56-87.56h161.06V1136.3
							z"/>
					</g>
					<g>
						
							<rect x="-205.95" y="1296.44" transform="matrix(0.5427 0.84 -0.84 0.5427 1075.6791 670.6826)" class="st16" width="255.79" height="53.39"/>
						<path class="st16" d="M-426.97,1548.08L-426.97,1548.08c-20.83-32.38-11.46-75.52,20.92-96.35l358.73-230.96l75.43,117.27
							L-330.62,1569C-363,1589.83-406.14,1580.46-426.97,1548.08z"/>
						<g>
							<path class="st15" d="M-2.84,1449.18l388.1-287.4c49.88-36.93,62.4-106.3,28.6-158.35l0,0
								c-33.8-52.05-102.27-68.82-156.29-38.28l-419.6,237.61L-2.84,1449.18z"/>
							<path class="st16" d="M355.97,1130.87c-34.85,22.63-81.6,12.69-104.23-22.16s-12.69-81.6,22.16-104.23
								c34.85-22.63,81.6-12.69,104.23,22.16C400.76,1061.48,390.82,1108.24,355.97,1130.87z M291.17,1031.08
								c-20.18,13.1-25.93,40.18-12.83,60.35c13.1,20.18,40.18,25.93,60.35,12.83c20.18-13.1,25.93-40.18,12.83-60.35
								C338.42,1023.74,311.35,1017.98,291.17,1031.08z"/>
						</g>
					</g>
					<g>
						<g>
							<g>
								<path class="st15" d="M645.99,1928.55L645.99,1928.55c-82.55,93.84-225.55,103-319.39,20.45l-425.96-374.7
									c-93.84-82.55-103-225.55-20.45-319.39l0,0c82.55-93.84,225.55-103,319.39-20.45l425.96,374.7
									C719.38,1691.71,728.54,1834.71,645.99,1928.55z"/>
							</g>
							<path class="st16" d="M-49.35,1316.91c-43.46,49.41-38.63,124.69,10.77,168.15c49.41,43.46,124.69,38.65,168.15-10.76
								c43.47-49.41,38.64-124.7-10.77-168.16C69.41,1262.68-5.88,1267.49-49.35,1316.91z M93.62,1442.67
								c-25.99,29.54-71.01,32.42-100.56,6.43c-29.55-25.99-32.43-71.01-6.45-100.55c25.99-29.55,71.01-32.43,100.56-6.44
								C116.73,1368.1,119.61,1413.12,93.62,1442.67z"/>
						</g>
					</g>
					<g>
						<path class="st16" d="M868.28,2073.13l-34.54-22.09c56.76-88.75,56.74-169.27-0.04-232.87
							c-94.38-105.71-286.01-22.15-287.94-21.3l-16.72-37.44c2.22-0.99,55.01-24.34,121.94-32.84
							c91.63-11.63,165.39,10.6,213.3,64.26C933.61,1868.51,935.03,1968.76,868.28,2073.13z"/>
						<g>
							<g>
								<path class="st16" d="M707.67,1967.68H296.42v-176.42c0-113.56,92.06-205.62,205.62-205.62h0
									c113.56,0,205.62,92.06,205.62,205.62V1967.68z"/>
								<path class="st17" d="M443.07,1717.6c-39.02,33.84-43.22,92.9-9.38,131.92c33.84,39.02,92.9,43.23,131.92,9.39
									c39.03-33.84,43.22-92.91,9.39-131.93C541.16,1687.97,482.09,1683.76,443.07,1717.6z M540.98,1830.52
									c-23.33,20.23-58.65,17.72-78.89-5.62c-20.24-23.34-17.72-58.66,5.61-78.89c23.34-20.24,58.66-17.72,78.9,5.61
									C566.83,1774.96,564.32,1810.28,540.98,1830.52z"/>
							</g>
						</g>
						<g>
							<rect x="249.68" y="1946.94" class="st16" width="525.77" height="154.48"/>
							<g>
								<path class="st17" d="M954.64,2162.43H20.26c-0.49,4.28-0.75,8.64-0.75,13.07v448.49h935.88V2175.5
									C955.39,2171.07,955.13,2166.71,954.64,2162.43z"/>
								<path class="st17" d="M752.93,2021.29H226.14c-112.71,30.63-195.19,83.35-203.8,158.18h934.38
									C948.13,2104.64,865.65,2051.92,752.93,2021.29z"/>
							</g>
							<rect x="0.42" y="2487.55" class="st16" width="1008.18" height="136.48"/>
							<g>
								<path class="st16" d="M400.46,2292.13L400.46,2292.13c-13.9,0-25.17-11.27-25.17-25.17l0,0c0-13.9,11.27-25.17,25.17-25.17
									h0c13.9,0,25.17,11.27,25.17,25.17l0,0C425.63,2280.86,414.36,2292.13,400.46,2292.13z"/>
								<path class="st16" d="M485.78,2292.13L485.78,2292.13c-13.9,0-25.17-11.27-25.17-25.17l0,0c0-13.9,11.27-25.17,25.17-25.17
									h0c13.9,0,25.17,11.27,25.17,25.17l0,0C510.96,2280.86,499.69,2292.13,485.78,2292.13z"/>
								<path class="st16" d="M571.11,2292.13L571.11,2292.13c-13.9,0-25.17-11.27-25.17-25.17l0,0c0-13.9,11.27-25.17,25.17-25.17
									l0,0c13.9,0,25.17,11.27,25.17,25.17l0,0C596.28,2280.86,585.01,2292.13,571.11,2292.13z"/>
								<path class="st16" d="M656.43,2292.13L656.43,2292.13c-13.9,0-25.17-11.27-25.17-25.17l0,0c0-13.9,11.27-25.17,25.17-25.17
									l0,0c13.9,0,25.17,11.27,25.17,25.17l0,0C681.6,2280.86,670.33,2292.13,656.43,2292.13z"/>
							</g>
							<path class="st16" d="M277.66,2465.78H126.72v-138.6h150.93V2465.78z M129.05,2463.44h146.27v-133.93H129.05V2463.44z"/>
							<g>
								<g>
									<path class="st16" d="M172.75,2102.3c15.35-22.08,38.35-37.64,61.17-51.34h-11.08c-22.83,13.69-45.83,29.26-61.19,51.34
										H172.75z"/>
									<path class="st16" d="M199.13,2102.3c15.31-22.08,38.31-37.64,61.1-51.34h-11.08c-22.8,13.69-45.8,29.25-61.13,51.34
										H199.13z"/>
									<path class="st16" d="M225.51,2102.3c15.28-22.08,38.28-37.64,61.04-51.34h-11.08c-22.77,13.7-45.77,29.25-61.06,51.34
										H225.51z"/>
									<path class="st16" d="M251.88,2102.3c15.24-22.08,38.24-37.64,60.97-51.34h-11.08c-22.75,13.7-45.75,29.25-61,51.34H251.88
										z"/>
									<path class="st16" d="M278.26,2102.3c15.2-22.08,38.2-37.64,60.91-51.34h-11.08c-22.72,13.7-45.72,29.25-60.94,51.34
										H278.26z"/>
									<path class="st16" d="M304.64,2102.3c15.17-22.08,38.17-37.64,60.85-51.34h-11.08c-22.69,13.7-45.69,29.25-60.87,51.34
										H304.64z"/>
									<path class="st16" d="M331.02,2102.3c15.13-22.08,38.14-37.64,60.78-51.34h-11.08c-22.66,13.7-45.66,29.25-60.81,51.34
										H331.02z"/>
								</g>
							</g>
						</g>
					</g>
				</g>
			</g>
			<g id="Arm_02">
				<path class="st9" d="M3195.71,1826.59c-0.17-1.15-4.17-28.51-1.1-64.92c2.85-33.78,12.65-81.82,43.13-118.91
					c29.43-35.81,72.54-55.26,128.13-57.83c86.91-4,129.92,53.53,167.84,104.29c22.93,30.68,44.58,59.67,73.44,72.84
					c72.07,32.89,151.36,34.18,229.3,3.73c98.17-38.36,174.97-118.99,200.1-178.82l9.22,3.87
					c-25.94,61.77-104.92,144.89-205.68,184.26c-37.86,14.79-76.19,22.44-113.91,22.72c-42.24,0.36-83.71-8.66-123.18-26.67
					c-31.18-14.23-53.58-44.21-77.3-75.95c-38.22-51.15-77.74-104.07-159.37-100.28c-52.62,2.42-93.27,20.64-120.83,54.15
					c-28.82,35.03-38.15,80.88-40.9,113.17c-3.01,35.3,0.96,62.59,1,62.86L3195.71,1826.59z"/>
				<g>
					<path class="st16" d="M3664.82,2642.56l7-5.69c-61.51-75.62-86.55-138.68-76.57-192.81c13.59-73.67,91.07-118.34,159.42-157.75
						c38.37-22.12,74.62-43.02,95.09-66.72c15.36-17.79,21.73-37.05,18.92-57.26c-6.37-45.83-57.47-79.98-59.65-81.41l-4.96,7.53
						c0.5,0.33,49.9,33.37,55.68,75.14c2.42,17.51-3.23,34.37-16.82,50.09c-19.47,22.55-55.07,43.07-92.77,64.8
						c-70.05,40.39-149.44,86.16-163.79,163.93C3575.88,2499.3,3601.54,2564.77,3664.82,2642.56z"/>
					<path class="st16" d="M3454.31,2889.58l30.4-19.44c-49.94-78.09-49.93-148.95,0.04-204.91
						c83.05-93.01,251.67-19.49,253.36-18.74l14.71-32.94c-1.95-0.87-48.41-21.42-107.3-28.89
						c-80.63-10.23-145.53,9.32-187.69,56.55C3396.83,2709.52,3395.58,2797.73,3454.31,2889.58z"/>
					<path class="st16" d="M4202.64,2139.31c1.13-2.34,27.69-57.97,33.69-127.29c8.19-94.65-26.01-168.51-98.91-213.6
						c-53.25-32.94-111.86-42.48-169.5-27.59c-66.48,17.18-119.47,64.45-134.36,90.99l31.47,17.65
						c9.92-17.69,54.3-58.82,111.91-73.7c48.57-12.55,96.17-4.7,141.49,23.34c61.41,37.99,88.98,98.49,81.94,179.81
						c-5.43,62.78-29.98,114.19-30.23,114.71L4202.64,2139.31z"/>
					
						<rect x="3799.09" y="1856.85" transform="matrix(-0.866 -0.5 0.5 -0.866 6247.5747 5415.2998)" class="st16" width="100.42" height="27.57"/>
					<g>
						<g>
							
								<rect x="3106.5" y="1639.78" transform="matrix(0.9106 -0.4133 0.4133 0.9106 -454.1686 1454.9854)" class="st9" width="59.37" height="275.08"/>
							<path class="st15" d="M3146.83,1713.64l-63.37,28.76c-15.42-4.1-28.95-14.84-36.03-30.51l-20.68-45.89l100.23-45.27
								l20.68,45.89C3154.71,1682.23,3153.87,1699.4,3146.83,1713.64z"/>
							<g>
								
									<rect x="3009" y="1628.26" transform="matrix(0.9106 -0.4133 0.4133 0.9106 -401.3805 1416.6589)" class="st9" width="129.98" height="15.77"/>
							</g>
						</g>
						<g>
							<g>
								<polygon class="st9" points="2875.14,1419.96 2853.5,1426.18 2863.39,1601.13 2922.38,1584.15 								"/>
								<polygon class="st9" points="3062.47,1343.53 3081.53,1331.57 3205.25,1455.65 3153.25,1488.27 								"/>
								<path class="st15" d="M3109.66,1546.37l-119.15,54.08c-14.52,6.59-21,23.86-14.42,38.37v0c6.59,14.52,23.86,21,38.37,14.42
									l119.15-54.08c14.52-6.59,21-23.86,14.42-38.37l0,0C3141.45,1546.27,3124.18,1539.78,3109.66,1546.37z"/>
								<g>
									<path class="st15" d="M3024.23,1638.47c-4.15,12.81-17.75,19.98-30.66,16.18l-108.41-31.92
										c-24.93-7.07-37.28-35.08-25.68-58.25v0c11.03-22.04,38.78-29.59,59.45-16.17l95.16,61.65
										C3023.54,1616.07,3027.69,1627.77,3024.23,1638.47L3024.23,1638.47z"/>
									<g>
										<g>
											<path class="st9" d="M2909.2,1594.8c7.91-7.65,5.98-20.65-3.81-25.68c-5.93-3.04-13.35-1.94-18.14,2.69
												c-7.91,7.65-5.98,20.65,3.81,25.68C2896.99,1600.53,2904.41,1599.43,2909.2,1594.8z"/>
										</g>
									</g>
									<g>
										<g>
											<path class="st9" d="M3006.73,1638.4c6.08-5.88,4.59-15.87-2.93-19.73c-4.56-2.34-10.26-1.49-13.94,2.07
												c-6.07,5.88-4.59,15.87,2.93,19.73C2997.35,1642.81,3003.05,1641.96,3006.73,1638.4z"/>
										</g>
									</g>
								</g>
								<g>
									<path class="st15" d="M3112.05,1597.34c11.56,6.91,26.51,3.36,33.73-8l60.6-95.39c14.11-21.73,4.97-50.94-19.01-60.76v0
										c-22.81-9.33-48.67,3.25-55.4,26.96l-31.06,109.05C3097.82,1580.03,3102.39,1591.57,3112.05,1597.34L3112.05,1597.34z"/>
									<g>
										<g>
											<path class="st9" d="M3128.77,1585.35c8.1-2.4,11.41-11.94,6.53-18.84c-2.96-4.18-8.4-6.07-13.31-4.61
												c-8.1,2.4-11.41,11.94-6.53,18.84C3118.42,1584.92,3123.86,1586.8,3128.77,1585.35z"/>
										</g>
									</g>
									<g>
										<g>
											<path class="st9" d="M3174.81,1488.17c10.55-3.12,14.85-15.54,8.5-24.53c-3.85-5.44-10.94-7.9-17.33-6
												c-10.55,3.12-14.85,15.54-8.5,24.53C3161.33,1487.61,3168.42,1490.06,3174.81,1488.17z"/>
										</g>
									</g>
								</g>
							</g>
						</g>
					</g>
					<g>
						
							<rect x="3170.45" y="1814.41" transform="matrix(-0.9711 0.2387 -0.2387 -0.9711 6906.3853 2862.7251)" class="st16" width="218.77" height="70.39"/>
						<path class="st15" d="M3378.58,1904.66l137.62-33.83c41.32-10.16,66.58-51.89,56.42-93.21v0
							c-10.16-41.32-51.89-66.58-93.21-56.42l-137.62,33.83L3378.58,1904.66z"/>
						<path class="st15" d="M3200.32,1948.48l96.98-23.84l-36.79-149.63l-96.98,23.84c-41.32,10.16-66.58,51.89-56.42,93.21v0
							C3117.27,1933.38,3159,1958.64,3200.32,1948.48z"/>
						<path class="st16" d="M3139.25,1867.3c3.48-22.12,24.3-37.28,46.41-33.81c22.12,3.48,37.28,24.3,33.81,46.41
							c-3.48,22.12-24.3,37.28-46.41,33.81C3150.94,1910.24,3135.78,1889.42,3139.25,1867.3z M3156.14,1869.96
							c-2.01,12.81,6.77,24.86,19.57,26.87c12.81,2.01,24.86-6.77,26.87-19.57c2.01-12.81-6.77-24.86-19.57-26.87
							C3170.2,1848.37,3158.15,1857.15,3156.14,1869.96z"/>
					</g>
					<g>
						
							<rect x="3753.91" y="2009.34" transform="matrix(-0.5427 0.84 -0.84 -0.5427 7672.0947 -111.6574)" class="st16" width="225.08" height="46.98"/>
						<path class="st16" d="M4173.47,2230.77L4173.47,2230.77c18.33-28.49,10.09-66.45-18.41-84.78l-315.66-203.23l-66.37,103.19
							l315.66,203.23C4117.18,2267.5,4155.14,2259.26,4173.47,2230.77z"/>
						<g>
							<path class="st15" d="M3800.27,2143.74l-341.5-252.89c-43.89-32.5-54.91-93.54-25.17-139.34l0,0
								c29.74-45.8,89.99-60.55,137.53-33.68l369.22,209.08L3800.27,2143.74z"/>
							<path class="st16" d="M3465.04,1771.93c19.91-30.66,61.06-39.41,91.72-19.5c30.66,19.91,39.41,61.06,19.49,91.72
								s-61.06,39.41-91.72,19.5S3445.13,1802.6,3465.04,1771.93z M3488.45,1787.14c-11.53,17.75-6.47,41.58,11.29,53.11
								c17.75,11.53,41.58,6.47,53.11-11.29c11.53-17.75,6.47-41.58-11.29-53.11C3523.81,1764.32,3499.98,1769.38,3488.45,1787.14z"
								/>
						</g>
					</g>
					<g>
						<g>
							<g>
								<path class="st15" d="M3667.43,2760.3L3667.43,2760.3c83.09,72.05,208.85,63.1,280.9-19.98l327.04-377.14
									c72.05-83.09,63.1-208.85-19.98-280.9l0,0c-83.09-72.05-208.85-63.1-280.9,19.98l-327.04,377.14
									C3575.39,2562.48,3584.34,2688.25,3667.43,2760.3z"/>
							</g>
							<path class="st16" d="M4053.39,2155.19c-37.93,43.74-33.23,109.96,10.52,147.9c43.74,37.93,109.96,33.22,147.89-10.53
								c37.93-43.74,33.23-109.96-10.52-147.89C4157.53,2106.73,4091.32,2111.44,4053.39,2155.19z M4085.23,2182.8
								c22.69-26.16,62.28-28.98,88.44-6.29c26.16,22.68,28.97,62.28,6.29,88.44c-22.69,26.16-62.28,28.98-88.44,6.3
								C4065.36,2248.56,4062.54,2208.96,4085.23,2182.8z"/>
						</g>
					</g>
					<g>
						<g>
							<path class="st16" d="M3595.64,2796.79h361.86v-155.24c0-99.93-81.01-180.93-180.93-180.93h0
								c-99.93,0-180.93,81.01-180.93,180.93V2796.79z"/>
							<path class="st17" d="M3712.38,2585c-29.77,34.34-26.08,86.31,8.26,116.09c34.34,29.77,86.31,26.07,116.08-8.26
								c29.77-34.34,26.08-86.31-8.25-116.08C3794.13,2546.96,3742.15,2550.66,3712.38,2585z M3737.37,2606.67
								c17.81-20.54,48.89-22.75,69.42-4.94c20.53,17.8,22.74,48.88,4.93,69.42c-17.81,20.54-48.89,22.75-69.42,4.94
								C3721.78,2658.28,3719.57,2627.21,3737.37,2606.67z"/>
						</g>
					</g>
					<g>
						
							<rect x="3536" y="2778.54" transform="matrix(-1 -1.224647e-16 1.224647e-16 -1 7534.6401 5693.0049)" class="st16" width="462.63" height="135.93"/>
						<g>
							<path class="st17" d="M3378.32,2968.15h822.19c0.43,3.77,0.66,7.6,0.66,11.5v394.64h-823.5v-394.64
								C3377.66,2975.75,3377.89,2971.92,3378.32,2968.15z"/>
							<path class="st17" d="M3555.81,2843.96h463.54c99.18,26.95,171.75,73.35,179.32,139.19h-822.19
								C3384.05,2917.3,3456.63,2870.91,3555.81,2843.96z"/>
						</g>
						
							<rect x="3330.84" y="3254.23" transform="matrix(-1 -1.224647e-16 1.224647e-16 -1 7548.8037 6628.5566)" class="st16" width="887.12" height="120.09"/>
						<g>
							<path class="st16" d="M3865.96,3082.28L3865.96,3082.28c12.23,0,22.15-9.92,22.15-22.15l0,0c0-12.23-9.92-22.15-22.15-22.15
								l0,0c-12.23,0-22.15,9.92-22.15,22.15l0,0C3843.81,3072.36,3853.73,3082.28,3865.96,3082.28z"/>
							<path class="st16" d="M3790.88,3082.28L3790.88,3082.28c12.23,0,22.15-9.92,22.15-22.15l0,0c0-12.23-9.92-22.15-22.15-22.15
								l0,0c-12.23,0-22.15,9.92-22.15,22.15l0,0C3768.73,3072.36,3778.65,3082.28,3790.88,3082.28z"/>
							<path class="st16" d="M3715.8,3082.28L3715.8,3082.28c12.23,0,22.15-9.92,22.15-22.15l0,0c0-12.23-9.92-22.15-22.15-22.15
								l0,0c-12.23,0-22.15,9.92-22.15,22.15l0,0C3693.65,3072.36,3703.57,3082.28,3715.8,3082.28z"/>
							<path class="st16" d="M3640.72,3082.28L3640.72,3082.28c12.23,0,22.15-9.92,22.15-22.15l0,0c0-12.23-9.92-22.15-22.15-22.15
								l0,0c-12.23,0-22.15,9.92-22.15,22.15l0,0C3618.57,3072.36,3628.49,3082.28,3640.72,3082.28z"/>
						</g>
						<path class="st16" d="M3974.02,3113.12h132.81v121.96h-132.81V3113.12z M4104.78,3115.17h-128.7v117.85h128.7V3115.17z"/>
						<g>
							<g>
								<path class="st16" d="M4066.33,2915.24c-13.51-19.43-33.74-33.12-53.82-45.17h9.75c20.09,12.05,40.32,25.74,53.85,45.17
									H4066.33z"/>
								<path class="st16" d="M4043.12,2915.24c-13.47-19.43-33.71-33.12-53.76-45.17h9.75c20.06,12.05,40.3,25.74,53.79,45.17
									H4043.12z"/>
								<path class="st16" d="M4019.91,2915.24c-13.44-19.43-33.68-33.12-53.71-45.17h9.75c20.04,12.05,40.28,25.74,53.73,45.17
									H4019.91z"/>
								<path class="st16" d="M3996.69,2915.24c-13.41-19.43-33.65-33.12-53.65-45.17h9.75c20.01,12.05,40.25,25.74,53.68,45.17
									H3996.69z"/>
								<path class="st16" d="M3973.48,2915.24c-13.38-19.43-33.62-33.12-53.6-45.17h9.75c19.99,12.05,40.23,25.74,53.62,45.17
									H3973.48z"/>
								<path class="st16" d="M3950.27,2915.24c-13.35-19.43-33.59-33.12-53.54-45.17h9.75c19.96,12.05,40.2,25.74,53.56,45.17
									H3950.27z"/>
								<path class="st16" d="M3927.06,2915.24c-13.31-19.43-33.56-33.12-53.48-45.17h9.75c19.94,12.06,40.18,25.74,53.51,45.17
									H3927.06z"/>
							</g>
						</g>
					</g>
				</g>
			</g>
			<g>
				<g>
					
						<ellipse transform="matrix(0.954 -0.2999 0.2999 0.954 -260.2339 116.3934)" class="st18" cx="249.07" cy="905.98" rx="22" ry="22"/>
					<g>
						<path class="st18" d="M154.1,863.55l-12.1-7.34c34.2-65.87,112.67-88.5,176.67-51l-6.35,12.65
							C254.99,784.4,184.79,804.66,154.1,863.55z"/>
						<path class="st18" d="M179.22,878.79l-12.1-7.34c26.93-51.39,88.22-69.08,138.36-39.98l-6.35,12.65
							C255.67,819.06,202.64,834.38,179.22,878.79z"/>
						<path class="st18" d="M203.54,893.55l-12.1-7.34c19.89-37.38,64.54-50.28,101.28-29.3l-6.35,12.65
							C256.31,852.61,219.92,863.14,203.54,893.55z"/>
					</g>
				</g>
			</g>
			<g>
				
					<ellipse transform="matrix(0.1383 -0.9904 0.9904 0.1383 1440.6302 4995.4668)" class="st18" cx="3591" cy="1669.86" rx="22" ry="22"/>
				<g>
					<path class="st18" d="M3523.41,1590.8l-7.78-11.82c59.14-44.83,139.73-31.62,181.46,29.71l-11.16,8.7
						C3648.5,1562.58,3576.4,1550.77,3523.41,1590.8z"/>
					<path class="st18" d="M3539.57,1615.35l-7.78-11.82c46.36-34.87,109.32-24.56,142.14,23.24l-11.16,8.7
						C3634.24,1594.18,3579.77,1585.27,3539.57,1615.35z"/>
					<path class="st18" d="M3555.2,1639.11l-7.78-11.82c34-25.24,79.87-17.74,104.06,16.97l-11.16,8.7
						C3620.44,1624.76,3583.05,1618.66,3555.2,1639.11z"/>
				</g>
			</g>
		</g>
		<g class="st11">
			<g id="Arm_03">
				<g>
					<g>
						
							<rect x="3124.38" y="886.96" transform="matrix(0.9813 -0.1923 0.1923 0.9813 -116.8452 637.4586)" class="st12" width="201.87" height="67.34"/>
						<g>
							<g>
								<g>
									<polygon class="st15" points="3185.48,974.85 3167.98,890.38 3129.14,853.26 3164.6,1024.35 									"/>
								</g>
							</g>
							<g>
								
									<rect x="3044.33" y="844.4" transform="matrix(0.9783 -0.2071 0.2071 0.9783 -128.7939 661.7493)" class="st12" width="104.48" height="203.36"/>
							</g>
						</g>
					</g>
					<path class="st12" d="M3034.79,878.8c4.9,0.91,9.81,1.8,14.73,2.64c12,2.05,24.05,3.81,36.17,5
						c3.58-48.32-14.89-97.67-54.28-131.9c-64.51-56.06-161.35-50.89-219.61,10.51l38.74,33.66
						c39.64-40.06,104.11-42.98,147.25-5.49C3023.45,815.52,3036,847.28,3034.79,878.8z"/>
					<path class="st12" d="M3073.25,1052.07c3.29-3.75,6.6-7.48,9.94-11.18c8.16-9.03,16.55-17.87,25.33-26.29
						c32.69,35.77,48.69,85.97,38.89,137.23c-16.04,83.94-95.35,139.76-179.1,127.53l9.63-50.41
						c55.92,6.98,108.4-30.59,119.12-86.73C3103.46,1108.82,3093.69,1076.09,3073.25,1052.07z"/>
				</g>
				
					<rect x="3108.86" y="-403.97" transform="matrix(-1 -1.224647e-16 1.224647e-16 -1 6950.3765 -644.3944)" class="st12" width="732.66" height="163.54"/>
				<path class="st12" d="M3342.58,905.47c66.46-23.64,116.32-85.52,121.23-150.48c4.59-60.67-28.95-113.46-94.45-148.64
					c-77.93-41.85-70-110.9-62.98-138.64c14.46-57.1,61.56-103.43,105.01-103.29l0.04-11.68c-49.29-0.16-100.41,49.09-116.37,112.11
					c-7.32,28.92-6.02,57.44,3.78,82.47c11.31,28.91,33.18,52.24,65,69.33c61.18,32.86,92.55,81.68,88.33,137.46
					c-4.58,60.49-51.25,118.21-113.5,140.35L3342.58,905.47z"/>
				<path class="st12" d="M3426.51,340.88l1.78-33.01c-14.31-0.77-63.72-20.45-101.12-64.58c-32.96-38.88-46.79-84.46-41.13-135.46
					c5.42-48.79,24.64-86.35,57.13-111.64c64.41-50.14,161.09-37.48,162.05-37.35l4.58-32.74c-4.51-0.63-111.16-14.84-186.76,43.86
					c-39.9,30.98-63.4,76.13-69.85,134.21c-6.62,59.54,10.24,115.04,48.76,160.48C3344.06,314.34,3401.17,339.51,3426.51,340.88z"/>
				<g>
					<path class="st17" d="M3487.43-47.18h361.49c55.42,0,100.34-44.93,100.34-100.34v0c0-55.42-44.93-100.34-100.34-100.34h-361.49
						c-55.42,0-100.34,44.93-100.34,100.34v0C3387.09-92.11,3432.01-47.18,3487.43-47.18z"/>
					<rect x="3620.64" y="69.21" class="st12" width="104.31" height="359.05"/>
					<path class="st15" d="M3777-160.7V89.78c0,57.55-46.66,104.21-104.21,104.21l0,0c-57.55,0-104.21-46.66-104.21-104.21V-160.7
						H3777z"/>
					<g>
						<path class="st12" d="M3616.76,65.14c-13.3,30.81,0.94,66.69,31.75,79.99c30.8,13.3,66.69-0.94,79.99-31.75
							c13.3-30.81-0.94-66.69-31.75-79.99C3665.94,20.1,3630.06,34.34,3616.76,65.14z"/>
					</g>
					<g>
						<g>
							<path class="st12" d="M3801.78-169.42c-10.94,26.1,1.39,56.23,27.49,67.17c26.1,10.94,56.23-1.39,67.17-27.49
								c10.94-26.1-1.39-56.23-27.49-67.17C3842.85-207.85,3812.72-195.52,3801.78-169.42z"/>
						</g>
						<g>
							<path class="st12" d="M3440.33-167.4c-11.22,25.98,0.79,56.24,26.77,67.45c25.98,11.22,56.24-0.79,67.45-26.77
								c11.22-25.98-0.79-56.24-26.77-67.45C3481.81-205.39,3451.55-193.38,3440.33-167.4z"/>
						</g>
					</g>
					<g>
						
							<rect x="3168.03" y="421.26" transform="matrix(0.9515 -0.3076 0.3076 0.9515 -20.5656 1012.6318)" class="st12" width="67.34" height="300.57"/>
						<g>
							<path class="st15" d="M3153.75,659.07l77.04,241.5c11.81,37.02,51.4,57.46,88.42,45.65h0c37.02-11.81,57.46-51.4,45.65-88.42
								l-77.04-241.5c-11.81-37.02-51.4-57.46-88.42-45.65l0,0C3162.38,582.46,3141.94,622.05,3153.75,659.07z"/>
							<g>
								<g>
									<path class="st12" d="M3301.79,850.04c-15.89-1.4-29.96,10.38-31.37,26.28c-1.4,15.89,10.38,29.96,26.28,31.37
										c15.89,1.4,29.97-10.38,31.37-26.28C3329.47,865.52,3317.68,851.45,3301.79,850.04z"/>
								</g>
							</g>
							<g>
								<g>
									<path class="st12" d="M3220.14,604.59c-15.89-1.4-29.97,10.38-31.37,26.28c-1.4,15.89,10.38,29.96,26.28,31.37
										c15.89,1.4,29.97-10.38,31.37-26.28C3247.82,620.07,3236.03,605.99,3220.14,604.59z"/>
								</g>
							</g>
						</g>
					</g>
					<g>
						<g>
							<path class="st15" d="M3168.47,525.38l469.58-8.33c71.99-1.28,129.31-60.67,128.03-132.66v0
								c-1.28-71.99-60.67-129.31-132.66-128.03l-469.58,8.33c-71.99,1.28-129.31,60.67-128.03,132.66v0
								C3037.09,469.33,3096.48,526.66,3168.47,525.38z"/>
							<g>
								<g>
									<path class="st12" d="M3104.51,370.3c-13.97,34,2.33,73.03,36.33,87.01c34,13.97,73.03-2.33,87-36.33
										c13.97-34-2.33-73.04-36.33-87.01C3157.52,320,3118.48,336.3,3104.51,370.3z"/>
								</g>
							</g>
						</g>
						<g>
							<g>
								<path class="st12" d="M3568.41,362.36c-13.97,34,2.33,73.03,36.33,87.01c34,13.97,73.03-2.33,87-36.33
									c13.97-34-2.33-73.04-36.33-87.01C3621.41,312.06,3582.38,328.36,3568.41,362.36z"/>
							</g>
						</g>
						<g>
							<g>
								<path class="st17" d="M3596.29,373.82c-7.65,18.63,1.28,40.01,19.9,47.66c18.63,7.65,40.01-1.28,47.66-19.9
									c7.65-18.63-1.28-40.01-19.9-47.66C3625.33,346.26,3603.95,355.19,3596.29,373.82z"/>
							</g>
						</g>
						<g>
							<g>
								<path class="st17" d="M3132.4,381.76c-7.65,18.63,1.28,40.01,19.9,47.66c18.63,7.65,40.01-1.28,47.66-19.9
									c7.65-18.63-1.28-40.01-19.9-47.66C3161.43,354.2,3140.05,363.13,3132.4,381.76z"/>
							</g>
						</g>
					</g>
				</g>
				<g>
					
						<ellipse transform="matrix(0.971 -0.2389 0.2389 0.971 -143.266 829.5449)" class="st18" cx="3350.6" cy="1005.81" rx="22" ry="22"/>
					<g>
						<path class="st18" d="M3448.74,1040.27l12.66,6.32c-28.66,68.46-105,97.47-171.87,65.37l5.28-13.13
							C3354.71,1127.46,3423,1101.49,3448.74,1040.27z"/>
						<path class="st18" d="M3422.45,1027.15l12.66,6.32c-22.6,53.43-82.23,76.11-134.6,51.23l5.28-13.13
							C3351.18,1092.97,3402.76,1073.34,3422.45,1027.15z"/>
						<path class="st18" d="M3397,1014.45l12.66,6.32c-16.74,38.89-60.19,55.43-98.53,37.54l5.28-13.13
							C3347.77,1059.59,3383.17,1046.1,3397,1014.45z"/>
					</g>
				</g>
			</g>
		</g>
		<g class="st11">
			
				<ellipse transform="matrix(0.6729 -0.7398 0.7398 0.6729 423.7251 1734.8485)" class="st18" cx="2173.37" cy="388.34" rx="22" ry="22"/>
			<g>
				<path class="st18" d="M2162.15,284.93l0.24-14.15c74.13-3.65,133.22,52.72,133.08,126.9l-14.12,0.89
					C2281.36,332.19,2228.49,281.77,2162.15,284.93z"/>
				<path class="st18" d="M2161.65,314.31l0.24-14.15c57.95-2.64,104.12,41.39,104.26,99.37l-14.12,0.89
					C2251.76,350.24,2211.82,312.16,2161.65,314.31z"/>
				<path class="st18" d="M2161.16,342.75l0.24-14.15c42.31-1.66,75.96,30.41,76.35,72.72l-14.12,0.89
					C2223.11,367.71,2195.68,341.58,2161.16,342.75z"/>
			</g>
		</g>
	</g>
</g>
</svg>
